<?xml version="1.0" encoding="utf-8"?>
<!-- Generator: Adobe Illustrator 19.2.0, SVG Export Plug-In . SVG Version: 6.00 Build 0)  -->
<svg version="1.1" id="Layer_1" xmlns="http://www.w3.org/2000/svg" xmlns:xlink="http://www.w3.org/1999/xlink" x="0px" y="0px"
	 viewBox="0 0 512 394.3" style="enable-background:new 0 0 512 394.3;" xml:space="preserve">
<style type="text/css">
	.st0{fill:#1B306B;}
</style>
<title>arrow-ltr</title>
<path class="st0" d="M491.3,176.5l-470.6,0C9.3,176.5,0,185.8,0,197.2c0,11.4,9.3,20.7,20.7,20.7l470.6,0c11.4,0,20.7-9.3,20.7-20.7
	C512,185.7,502.7,176.5,491.3,176.5z"/>
<path class="st0" d="M49.9,197.2L211.8,35.3c8.1-8.1,8.1-21.2,0-29.3s-21.2-8.1-29.2,0L6.1,182.5c-8.1,8.1-8.1,21.2,0,29.2
	c0,0,0,0,0,0l176.5,176.5c8.1,8.1,21.2,8.1,29.3,0c8.1-8.1,8.1-21.2,0-29.2L49.9,197.2z"/>
</svg>
