<?xml version="1.0" encoding="utf-8"?>
<!-- Generator: Adobe Illustrator 19.2.0, SVG Export Plug-In . SVG Version: 6.00 Build 0)  -->
<svg version="1.1" id="Layer_1" xmlns="http://www.w3.org/2000/svg" xmlns:xlink="http://www.w3.org/1999/xlink" x="0px" y="0px"
	 viewBox="0 0 512 394.3" style="enable-background:new 0 0 512 394.3;" xml:space="preserve">
<style type="text/css">
	.st0{fill:#FFF17D;}
</style>
<title>arrow-ltr</title>
<path class="st0" d="M20.7,217.8h470.6c11.4,0,20.7-9.3,20.7-20.7c0-11.4-9.3-20.7-20.7-20.7H20.7C9.3,176.5,0,185.8,0,197.2
	C0,208.6,9.3,217.8,20.7,217.8z"/>
<path class="st0" d="M462.1,197.2L300.2,359c-8.1,8.1-8.1,21.2,0,29.2s21.2,8.1,29.2,0l176.5-176.5c8.1-8.1,8.1-21.2,0-29.2
	c0,0,0,0,0,0L329.5,6.1c-8.1-8.1-21.2-8.1-29.2,0s-8.1,21.2,0,29.2L462.1,197.2z"/>
</svg>
