<?xml version="1.0" encoding="utf-8"?>
<!-- Generator: Adobe Illustrator 19.2.0, SVG Export Plug-In . SVG Version: 6.00 Build 0)  -->
<svg version="1.1" id="Capa_1" xmlns="http://www.w3.org/2000/svg" xmlns:xlink="http://www.w3.org/1999/xlink" x="0px" y="0px"
	 viewBox="0 0 357 357" style="enable-background:new 0 0 357 357;" xml:space="preserve">
<style type="text/css">
	.st0{fill:#BBB8CC;}
</style>
<g>
	<path class="st0" d="M32.2,7.6H3.5C1.6,7.6,0,9.1,0,11.1v334.6c0,1.9,1.6,3.5,3.5,3.5h28.7c1.9,0,3.5-1.6,3.5-3.5V11.1
		C35.7,9.1,34.1,7.6,32.2,7.6z"/>
	<path class="st0" d="M67.2,290.6h14.3c1.9,0,3.5-1.6,3.5-3.5v-276c0-1.9-1.6-3.5-3.5-3.5H67.2c-1.9,0-3.5,1.6-3.5,3.5v276
		C63.7,289,65.3,290.6,67.2,290.6z"/>
	<path class="st0" d="M121.4,290.6H140c1.9,0,3.5-1.6,3.5-3.5v-276c0-1.9-1.6-3.5-3.5-3.5h-18.6c-1.9,0-3.5,1.6-3.5,3.5v276
		C117.9,289,119.5,290.6,121.4,290.6z"/>
	<path class="st0" d="M170.8,290.6h18.1c1.9,0,3.5-1.6,3.5-3.5v-276c0-1.9-1.6-3.5-3.5-3.5h-18.1c-1.9,0-3.5,1.6-3.5,3.5v276
		C167.3,289,168.9,290.6,170.8,290.6z"/>
	<path class="st0" d="M220.2,290.6h28.7c1.9,0,3.5-1.6,3.5-3.5v-276c0-1.9-1.6-3.5-3.5-3.5h-28.7c-1.9,0-3.5,1.6-3.5,3.5v276
		C216.7,289,218.3,290.6,220.2,290.6z"/>
	<path class="st0" d="M279.1,290.6h19.1c1.9,0,3.5-1.6,3.5-3.5v-276c0-1.9-1.6-3.5-3.5-3.5h-19.1c-1.9,0-3.5,1.6-3.5,3.5v276
		C275.6,289,277.2,290.6,279.1,290.6z"/>
	<path class="st0" d="M353.5,7.6h-28.7c-1.9,0-3.5,1.6-3.5,3.5v334.6c0,1.9,1.6,3.5,3.5,3.5h28.7c1.9,0,3.5-1.6,3.5-3.5V11.1
		C357,9.1,355.4,7.6,353.5,7.6z"/>
	<path class="st0" d="M69.8,305.8c-11.2,0-17.7,7.9-17.7,21.8c0,13.9,6.4,21.8,17.7,21.8c11.3,0,17.8-8,17.8-21.8
		C87.5,313.8,81,305.8,69.8,305.8z M69.8,343.8c-8,0-12.1-5.5-12.1-16.2c0-10.7,4.1-16.1,12.1-16.1c8,0,12.1,5.4,12.1,16.1
		C81.9,333.6,80.3,343.8,69.8,343.8z"/>
	<path class="st0" d="M98.9,305.8h-8.6c-1.5,0-2.7,1.2-2.7,2.7v0.2c0,1.5,1.2,2.7,2.7,2.7H96v35.3c0,1.5,1.2,2.7,2.7,2.7h0.2
		c1.5,0,2.7-1.2,2.7-2.7v-38.2C101.6,307,100.4,305.8,98.9,305.8z"/>
	<path class="st0" d="M123.5,327.6h-11.2c-1.5,0-2.7,1.2-2.7,2.7v0.2c0,1.5,1.2,2.7,2.7,2.7h11.2c1.5,0,2.7-1.2,2.7-2.7v-0.2
		C126.2,328.8,125,327.6,123.5,327.6z"/>
	<path class="st0" d="M145.7,305.8c-11.2,0-17.7,7.9-17.7,21.8c0,13.9,6.4,21.8,17.7,21.8c11.3,0,17.7-8,17.7-21.8
		C163.4,313.8,156.9,305.8,145.7,305.8z M145.7,343.8c-8,0-12.1-5.5-12.1-16.2c0-10.7,4.1-16.1,12.1-16.1c8,0,12.1,5.4,12.1,16.1
		C157.8,333.6,156.2,343.8,145.7,343.8z"/>
	<path class="st0" d="M174.8,305.8h-8.6c-1.5,0-2.7,1.2-2.7,2.7v0.2c0,1.5,1.2,2.7,2.7,2.7h5.7v35.3c0,1.5,1.2,2.7,2.7,2.7h0.2
		c1.5,0,2.7-1.2,2.7-2.7v-38.2C177.5,307,176.3,305.8,174.8,305.8z"/>
	<path class="st0" d="M211.7,343.8h-18.9l11.4-12.6c4.6-4.8,7.3-10,7.3-14c0-6.9-5.2-11.4-13.3-11.4c-4.5,0-9.3,2-12.8,5.4
		c-0.5,0.5-0.8,1.2-0.8,1.9c0,0.7,0.3,1.4,0.8,1.9l0.1,0.1c1,1.1,2.7,1.1,3.8,0c2.4-2.3,5.8-3.8,8.9-3.8c2.3,0,7.6,0.6,7.6,5.7
		c0,1.9-1.5,5.7-5.8,10.1l-15,16.6c-0.4,0.5-0.7,1.1-0.7,1.8v0.9c0,1.5,1.2,2.7,2.7,2.7h24.6c1.5,0,2.7-1.2,2.7-2.7v-0.2
		C214.4,345,213.2,343.8,211.7,343.8z"/>
	<path class="st0" d="M231.7,323l10.4-12.3c0.4-0.5,0.6-1.1,0.6-1.8v-0.4c0-1.5-1.2-2.7-2.7-2.7h-19.7c-1.5,0-2.7,1.2-2.7,2.7v0.2
		c0,1.5,1.2,2.7,2.7,2.7h13.7l-10.4,12.2c-0.4,0.5-0.6,1.1-0.6,1.8v0.4c0,1.5,1.2,2.7,2.7,2.7h3.5c4.4,0,9.7,1.2,9.7,7.1
		c0,5.1-3.6,8.2-9.6,8.2c-3,0-6.3-0.9-8.8-2.5c-1.2-0.8-2.8-0.5-3.6,0.7l-0.1,0.2c-0.5,0.6-0.6,1.4-0.5,2.1c0.1,0.7,0.6,1.4,1.2,1.8
		c3.5,2.1,7.8,3.4,11.8,3.4c9.1,0,15.2-5.6,15.2-14.1C244.6,328.5,239.6,323.8,231.7,323z"/>
	<path class="st0" d="M275.8,332.2h-3.6v-9.8c0-1.5-1.2-2.7-2.7-2.7h-0.2c-1.5,0-2.7,1.2-2.7,2.7v9.8H255l12.8-22.3
		c0.5-0.8,0.5-1.9,0-2.7c-0.5-0.8-1.4-1.4-2.3-1.4h-0.2c-1,0-1.9,0.5-2.3,1.4l-14.8,25.7c-0.2,0.4-0.4,0.9-0.4,1.3v0.8
		c0,1.5,1.2,2.7,2.7,2.7h16.2v8.9c0,1.5,1.2,2.7,2.7,2.7h0.2c1.5,0,2.7-1.2,2.7-2.7v-8.9h3.6c1.5,0,2.7-1.2,2.7-2.7v-0.2
		C278.5,333.4,277.3,332.2,275.8,332.2z"/>
	<path class="st0" d="M292.1,321.6c-1.9,0-4.1,0.3-6.3,0.8v-11h17c1.5,0,2.7-1.2,2.7-2.7v-0.2c0-1.5-1.2-2.7-2.7-2.7h-20
		c-1.5,0-2.7,1.2-2.7,2.7v17.8c0,0.9,0.4,1.7,1.2,2.2c0.7,0.5,1.7,0.6,2.5,0.3c2.6-1,5.9-1.6,8.3-1.6c5.8,0,9.2,2.8,9.2,7.4
		c0,5.7-3.5,9-9.3,9c-3.1,0-6.9-1.2-9.9-3c-1.3-0.8-2.9-0.4-3.7,0.9l-0.1,0.1c-0.4,0.6-0.5,1.3-0.3,2c0.2,0.7,0.6,1.3,1.2,1.7
		c3.8,2.4,8.8,3.9,12.9,3.9c8.9,0,15-5.9,15-14.7C306.9,326.8,301,321.6,292.1,321.6z"/>
</g>
</svg>
