<?xml version="1.0" encoding="utf-8"?>
<!-- Generator: Adobe Illustrator 19.2.0, SVG Export Plug-In . SVG Version: 6.00 Build 0)  -->
<svg version="1.1" id="Capa_1" xmlns="http://www.w3.org/2000/svg" xmlns:xlink="http://www.w3.org/1999/xlink" x="0px" y="0px"
	 viewBox="0 0 48 60" style="enable-background:new 0 0 48 60;" xml:space="preserve">
<style type="text/css">
	.st0{fill:#4C4C4C;}
</style>
<title>document</title>
<path class="st0" d="M39,25H14c-0.6,0-1,0.4-1,1s0.4,1,1,1h25c0.6,0,1-0.4,1-1S39.6,25,39,25z"/>
<path class="st0" d="M14,19h10c0.6,0,1-0.4,1-1s-0.4-1-1-1H14c-0.6,0-1,0.4-1,1S13.4,19,14,19z"/>
<path class="st0" d="M39,33H14c-0.6,0-1,0.4-1,1s0.4,1,1,1h25c0.6,0,1-0.4,1-1S39.6,33,39,33z"/>
<path class="st0" d="M39,41H14c-0.6,0-1,0.4-1,1s0.4,1,1,1h25c0.6,0,1-0.4,1-1S39.6,41,39,41z"/>
<path class="st0" d="M39,49H14c-0.6,0-1,0.4-1,1s0.4,1,1,1h25c0.6,0,1-0.4,1-1S39.6,49,39,49z"/>
<path class="st0" d="M43,14.6V0H0v55h5v5h43V19.6L43,14.6z M34,8.4l9,9l1.6,1.6H34V8.4z M2,53V2h39v10.6L33.4,5H5v48H2z M7,58V7h25
	v14h14v37H7z"/>
</svg>
