<svg id="Capa_1" data-name="Capa 1" xmlns="http://www.w3.org/2000/svg" viewBox="0 0 112.2 112.2"><defs><style>.cls-1{fill:#dc4e41;}.cls-2{fill:#fff;}</style></defs><title>googleplus_color</title><circle id="_Path_" data-name="&lt;Path&gt;" class="cls-1" cx="56.1" cy="56.1" r="56.1"/><path class="cls-1" d="M19.53,58.61A23.12,23.12,0,0,0,35.13,80.47c8.61,2.89,19.21.73,24.94-6.65,4.19-5.17,5.14-12.06,4.68-18.5-7.38-.07-14.75,0-22.12,0,0,2.63,0,5.25,0,7.87,4.42,0.12,8.83.07,13.25,0.15-1.12,3.82-3.65,7.38-7.51,8.76-7.44,3.28-16.94-1-19.28-8.81-2.83-7.48,1.8-16.5,9.44-18.67,4.74-1.67,9.62.21,13.67,2.67,2.05-1.92,4-4,5.86-6.05a23.13,23.13,0,0,0-16.61-5.7C29.53,35.66,19.08,46.68,19.53,58.61Z" transform="translate(0 0)"/><path class="cls-1" d="M79.1,48.67c0,2.2,0,4.41-.06,6.6l-6.6,0V61.9l6.6,0c0,2.2,0,4.4,0,6.6,2.19,0,4.39,0,6.58,0,0-2.21,0-4.41,0-6.61l6.6,0V55.32l-6.6,0c0-2.2,0-4.41,0-6.6H79.1Z" transform="translate(0 0)"/><path class="cls-2" d="M19.53,58.61c-0.45-11.93,10-22.95,21.93-23.09a23.13,23.13,0,0,1,16.61,5.7c-1.89,2.08-3.81,4.13-5.86,6.05-4.05-2.46-8.94-4.34-13.67-2.67-7.64,2.18-12.27,11.2-9.44,18.67,2.34,7.81,11.84,12.09,19.28,8.81,3.85-1.38,6.4-4.94,7.51-8.76-4.42-.09-8.83,0-13.25-0.15,0-2.63,0-5.25,0-7.87,7.37,0,14.74,0,22.12,0,0.45,6.44-.5,13.33-4.68,18.5-5.73,7.38-16.32,9.54-24.94,6.65A23.12,23.12,0,0,1,19.53,58.61Z" transform="translate(0 0)"/><path class="cls-2" d="M79.1,48.67h6.57c0,2.2,0,4.41,0,6.6l6.6,0V61.9l-6.6,0c0,2.21,0,4.41,0,6.61-2.2,0-4.4,0-6.58,0,0-2.21,0-4.41,0-6.6l-6.6,0V55.31l6.6,0C79.06,53.07,79.08,50.87,79.1,48.67Z" transform="translate(0 0)"/></svg>