<svg id="Layer_1" data-name="Layer 1" xmlns="http://www.w3.org/2000/svg" viewBox="0 0 932.12 730.78"><defs><style>.cls-1{fill:#e6e6e6;}</style></defs><title>quote-close</title><path class="cls-1" d="M571.06,852.35c216.25-63.39,298.28-261,298.28-350.48,0-11.19-7.46-18.64-18.64-18.64s-52.2,29.83-111.86,29.83c-93.21,0-186.42-67.12-186.42-190.15,0-104.4,74.57-190.15,186.42-190.15,123,0,201.34,100.67,201.34,223.71,0,179-115.58,436.24-369.12,507.08V852.35Zm-544.36,0C243,789,325,591.35,325,501.87c0-11.19-7.46-18.64-18.64-18.64s-52.2,29.83-111.86,29.83c-93.21,0-186.42-67.12-186.42-190.15,0-104.4,74.57-190.15,186.42-190.15,123,0,201.34,100.67,201.34,223.71,0,179-115.58,436.24-369.12,507.08V852.35Z" transform="translate(-8.06 -132.74)"/></svg>