<?xml version="1.0" encoding="utf-8"?>
<!-- Generator: Adobe Illustrator 19.2.0, SVG Export Plug-In . SVG Version: 6.00 Build 0)  -->
<svg version="1.1" id="Layer_1" xmlns="http://www.w3.org/2000/svg" xmlns:xlink="http://www.w3.org/1999/xlink" x="0px" y="0px"
	 viewBox="0 0 504.9 73.5" style="enable-background:new 0 0 504.9 73.5;" xml:space="preserve">
<style type="text/css">
	.st0{fill:#FFFFFF;}
</style>
<path class="st0" d="M33.7,2h2v0.3c0.2,0,0.3,0,0.5,0.1v0.2h0.3v0.3c0.5,0,0.3,0.3,0.8,0.3v0.2h0.3v0.2h0.2c0,0.7,0.1,0.7,0.2,1.1
	c0.1,0.5,0.2,3.6,0.1,4.2c-0.1,0.6-0.3,0.8-0.3,1.5h-0.2c0,0.3,0,0.5-0.1,0.8h-0.2v0.5h-0.3c0,0.5-0.2,0.4-0.3,0.8h-0.2v0.2h-0.3
	v0.3H36v0.2h-0.3v0.2h-0.2v0.3c-0.2,0-0.3,0-0.5,0.1c0,0.1,0,0.1-0.1,0.2C34.8,14,34.6,14,34.4,14v0.2h-0.8v0.2h-1V14
	c-0.5,0-1.1,0-1.5-0.1c0-0.1-0.1-0.3-0.1-0.4c-0.1,0-0.1,0-0.2-0.1c-0.5-0.8-0.3-2.5-0.3-3.7V8.3c0-0.1,0.2-0.2,0.2-0.3V7h0.2
	c0-0.3,0-0.5,0.1-0.7h0.2V5.9h0.3c0-0.4,0.1-0.3,0.2-0.4c0.1-0.3,0-0.9,0.1-1.1h0.2c0-0.2,0-0.3,0.1-0.5h0.2V3.1h0.8V2.5h0.2V2.3
	h0.3V2z"/>
<path class="st0" d="M54.2,5.7h1.2v0.2c0.3,0,0.5,0,0.8,0.1v0.2c0.2,0,0.3,0,0.5,0.1c0,0.1,0,0.1,0.1,0.2c0.1,0.1,0.1,0.1,0.2,0.1
	v0.2h0.2V7h0.3v0.2h0.2v0.3h0.2c0.1,0.8,0.2,2.1,0,3h-0.2v0.6h-0.2v0.3h-0.3v0.5H57v0.2c0,0,0,0-0.1,0.1h-0.2v0.2h-0.3v0.2h-0.3v0.3
	h-0.2v0.3h-0.2v0.2h-0.3v0.3h-0.2V14h-0.2c0,0.3-0.1,0.2-0.1,0.4h-0.2v0.3h-0.2V15h-0.3v0.3c0,0,0,0-0.1,0.1h-0.2
	c0,0.1,0,0.1-0.1,0.2v0.1h-0.2v0.2h-0.3V16h-0.2v0.2h-0.3v0.3h-0.2v0.2c-0.3,0.1-0.4,0.2-0.8,0.2v-0.8c-0.2,0-1.3,0.4-1.7,0.2
	c0-0.1-0.1-0.1-0.1-0.2h-0.5V16h-0.3v-0.3h-0.3v-0.2h-0.2V15c-0.1,0-0.1,0-0.2-0.1c-0.1-0.1-0.1-0.3-0.1-0.5h0.5v-0.2h-0.2V14h-0.3
	v-0.3h-0.2v-0.8H48v-0.4h0.2c0-0.4,0-0.9,0.1-1.2h0.2v-0.6h0.3v-0.6h0.2c0-0.1,0-0.3,0.1-0.4h0.2V9.3h0.2c0-0.3,0.1-0.3,0.1-0.5h0.2
	V8.5H50V8.3h0.2V8h0.2V7.8h0.2c0,0,0,0,0.1-0.1V7.5c0.1,0,0.1,0,0.2-0.1H51V7.3c0.2,0,0.3,0,0.5-0.1V7h0.2V6.7h0.4V6.5h0.1
	c0.3-0.2,0.6-0.3,1.1-0.4V6c0.3,0,0.6,0,0.9-0.1V5.7z"/>
<path class="st0" d="M31.1,16c0.6,0,1.4-0.1,2,0.1v0.2h0.8c0,0,0,0,0.1,0.1v0.2h0.5v0.2h0.2c0,0,0,0,0.1,0.1V17c0.2,0,0.3,0,0.5,0.1
	v0.2h0.2c0,0.2,0,0.3,0.1,0.5h0.2v0.7h0.2v0.6h-0.2v1h-0.2V21h-0.2v0.8c0,0,0,0-0.1,0H35c0,0.2,0,0.5-0.1,0.7c-0.1,0-0.1,0-0.2,0.1
	c-0.1,0.1-0.1,0.2-0.1,0.3h-0.2c0,0.1,0,0.1-0.1,0.2c-0.1,0.1-0.1,0.1-0.2,0.1v0.2c-0.8,0.1-1.6,0.6-2.6,0.3c-0.1,0-0.2-0.2-0.3-0.2
	c-0.3,0-0.7-0.1-1.1-0.1v-0.2c-0.2,0-0.5,0-0.7-0.1v-0.2h-0.3v-0.2h-0.4v-0.3h-0.3v-0.9h-0.2v-0.9h0.2v-2.9h0.2v-0.2H29
	c0,0,0,0,0.1-0.1V17h0.2v-0.2h0.2c0,0,0,0,0.1-0.1v-0.2c0.4-0.1,0.4-0.2,0.7-0.3h0.8V16z"/>
<path class="st0" d="M47.9,18.2v0.2h0.3v0.2h0.2v0.3h0.3v0.2H49v0.3h0.2v0.3h0.2v0.4h0.2v0.6H50v0.6h0.3V22c0,0,0,0,0.1,0.1h0.2
	c0.1,1,0.3,1.6,0.3,2.8c0,0-0.1,0-0.1,0.1h-0.2c0,0.2,0,0.3-0.1,0.5h-0.2v0.2H50c0,0.2,0,0.3-0.1,0.5h-0.2v0.3h-0.2
	c0,0.2,0,0.3-0.1,0.4c-0.1,0-0.1,0-0.2,0.1c-0.1,0.1-0.1,0.1-0.1,0.3H49c0,0.3,0,0.5-0.1,0.7v0.1c-0.2,0-0.5,0-0.7,0.1v0.2
	c-0.4,0-0.7,0-1.1,0.1v0.2h-2.3v-0.2H44V28c-0.3,0-0.5,0-0.7-0.1v-0.2c-0.2,0-0.3,0-0.5-0.1c0-0.1,0-0.1-0.1-0.2
	c-0.1,0-0.1,0-0.3-0.1v-0.2h-0.2v-0.3c-0.1,0-0.3,0-0.4-0.1c0-0.2-0.1-0.2-0.1-0.4h-0.2v-0.2h-0.2c0-0.1-0.1-0.2-0.1-0.4H41
	c0-0.2,0-0.3-0.1-0.5h-0.2c0-0.2,0-0.5-0.1-0.7h-0.2v-3.1h0.2c0-0.3,0-0.5,0.1-0.8h0.2c0-0.2,0-0.3,0.1-0.5h0.2V20c0,0,0,0,0.1-0.1
	h0.2c0-0.1,0-0.1,0.1-0.2v-0.1h0.2c0-0.2,0-0.3,0.1-0.5H42v-0.2h0.2v-0.2h0.2v-0.3c0.8,0,1.7-0.1,2.7-0.1v-0.2
	C45.9,18.1,47.1,18.1,47.9,18.2"/>
<path class="st0" d="M66.5,19.1v0.3h0.6v0.3c0.2,0,0.3,0,0.5,0.1c0,0.1,0,0.1,0.1,0.2V20h0.2c0,0.1,0,0.1,0.1,0.2
	c0.1,0,0.1,0,0.2,0.1v0.3h0.2v0.2c0,0,0.1,0,0.1,0.1h0.2c0,0.1,0,0.1,0.1,0.2V21h0.2v0.2c0.2,0.1,0.2,0,0.2,0.2h0.3
	c0.1,0.4,0.1,1.1,0.1,1.6c-0.1,0.1,0,0.3-0.1,0.4c0,0.1-0.2,0.1-0.3,0.3v0.8c-0.1,0.3-0.2,0.1-0.2,0.8h-0.3v0.8h-0.2v0.6h-0.2
	c0,0.2,0,0.3-0.1,0.5h-0.2v0.2h-0.3c0,0.4-0.3,0.4-0.3,0.8h-0.2v0.2h-0.3v0.2h-0.2V29h-0.2v0.2c-0.1,0-0.2,0-0.3,0.1v0.2h-0.2v0.3
	h-0.3V30h-0.2v0.2H65v0.2h-0.3c0,0,0,0-0.1,0.1v0.2c-0.1,0-0.3,0-0.4,0.1c0,0.1,0,0.1-0.1,0.2c-0.1,0.1-0.1,0-0.2,0.1v0.3h-0.5v0.2
	h-1.3v-0.2h-0.5v-0.3h-0.2c0,0,0,0-0.1-0.1v-0.2c-0.2,0-0.3,0-0.5-0.1v-0.3h-0.2v-0.2h-0.3V30h-0.2v-0.2h-0.2
	c-0.1-0.5-0.3-0.3-0.3-0.8h-0.2v-0.5H59v-1.6h0.3v-0.6h0.2v-0.5h0.2c0-0.2,0-0.3,0.1-0.5H60v-0.3c0,0,0,0,0-0.1h0.2
	c0-0.2,0-0.3,0-0.4h0.3c0-0.2,0-0.3,0.1-0.5h0.2v-0.3h0.3v-0.3c0,0,0,0,0.1-0.1h0.2c0-0.2,0-0.3,0.1-0.4h0.2v-0.3h0.2
	c0-0.2,0-0.3,0.1-0.5h0.3V22h0.2v-0.3h0.3c0-0.1,0-0.3,0.1-0.4c0.2-0.1,0.3-0.2,0.4-0.3c0.1-0.1,0.2-0.1,0.3-0.1v-0.2h0.4V21h0.3
	c0-0.2,0-0.5,0.1-0.7h0.2c0-0.2,0-0.4,0.1-0.6h0.2v-0.3h0.6v-0.2C65.7,19.2,66.1,19.1,66.5,19.1"/>
<path class="st0" d="M4.4,24.1H7c0,0.2,0,0.3,0.1,0.5h0.2v0.2h0.3v0.3h0.2v0.3H8v0.2h0.2C8.3,26,8.5,26,8.6,26.4
	c0.1,0,0.1,0,0.2,0.1c0.1,0.1,0.1,0.1,0.1,0.2h0.3v0.5h0.3v0.6h0.2V30H9.4v0.5H9.1c0,0,0,0-0.1,0.1v0.2c-0.3,0-0.7,0-1,0.1V31
	c-0.1,0-0.1,0-0.2,0.1c-0.1,0.1-0.1,0.3-0.1,0.5H6.5v-0.2c-0.2,0-0.5-0.1-0.7-0.1v0.3c-0.2,0-0.5,0-0.7-0.1v-0.2H4.7v-0.3
	c-0.2,0-0.3,0-0.5-0.1v-0.2H3.9v-0.2c-0.1,0-0.2-0.1-0.3-0.1v-0.2H3.4V30H3.1v-0.3H2.9c0-0.2,0-0.3-0.1-0.5H2.6v-0.5H2.4
	c0-0.3,0.1-0.7,0-0.9c0,0-0.2-0.1-0.2-0.1c-0.3-0.7,0.2-1.5,0.2-2.1h0.3v-0.2h0.3v-0.3h0.2v-0.3h0.2v-0.2c0.4,0,0.5-0.2,1.1-0.2
	V24.1z"/>
<path class="st0" d="M28.2,28.2c0.4,0,0.7,0,1,0.1v0.2h0.3v0.2c0.1,0,0.3,0,0.4,0.1c0.1,0.2,0.8,1,1.1,1.1V30h0.3v-0.2
	c0.3,0,0.5,0,0.8-0.1c0-0.1,0-0.1,0.1-0.2c0.1,0,0.1,0,0.2,0.1v0.1c0.5,0,1,0.1,1.5,0.1V30h0.9v0.5h0.5v0.3h0.2V31h-0.2v0.2
	c0,0,0,0-0.1,0.1H35v0.2h2.4c0.1-0.2,0-0.1,0.1-0.2c0.1,0.3,0.2,0.2,0.2,0.4c0.1,0.1,0.1,0.1,0.1,0.3h0.3v0.2c0.2,0,0.5,0,0.7,0.1
	v0.2c0.4,0,0.7,0,1.1,0.1c0,0.1,0,0.1,0.1,0.2c0.1,0.1,0.3,0.1,0.5,0.1v0.2c0.1,0,0.3,0,0.4,0.1c0,0.2,0,0.5,0.1,0.7
	c-0.1,0-0.1,0-0.2,0.1c0,0.1,0,0.1-0.1,0.2c0.1,0,0.4,0.1,0.5,0.1c0,0.3,0,0.6,0,0.9c-0.1,0-0.1,0-0.2,0.1c-0.1,0.1,0,0.1-0.1,0.3
	c-0.3,0-0.3,0.1-0.5,0.1v1.1h0.2c0,0.2,0,0.3,0.1,0.5h0.2c0-0.1,0-0.3,0.1-0.4h0.2c0,0.1,0,0.1,0.1,0.2v0.1h0.2
	c0.1,0.3,0.2,0.2,0.2,0.7c-0.2,0.1-0.2,0.1-0.2,0.3h-0.2c0,0,0,0-0.1-0.1v-0.2h-0.7v-0.3h-0.5v-0.2c-0.5,0-0.4-0.3-0.8-0.3v-0.3
	h-0.3v0.3h-0.2v0.2h0.5c0,0.4,0.2,0.3,0.2,0.8c-0.2,0.1-0.2,0-0.3,0.3h-0.2v0.3h-0.2c0,0.7,0,1.5-0.1,2.1h-0.5v0.3h0.6v0.3h0.2v0.2
	h0.5v0.3c0.4,0,0.5,0,0.8,0v-0.3h0.6v-0.2c0.1,0,0.3,0,0.4-0.1v0.2h0.5c0,0,0,0,0.1,0.1v0.2H42v0.2c0.2,0,0.3,0,0.5,0.1v0.3h0.3v0.2
	H43v0.3h0.3v0.3h0.2v0.2c0.4,0,0.8,0,1.2,0.1c0,0,0,0,0.1-0.1V43h0.3v-0.7h-0.3V42c0.5,0,0.9,0,1.3-0.1v-0.2h0.3
	c0-0.1,0-0.1-0.1-0.2c-0.1,0-0.1,0-0.2-0.1v-0.2h-0.5v-0.3h0.3v-0.2c0.4,0,0.3-0.2,0.6-0.3c0.4,0,0.8,0,1.2-0.1
	c0,0.1,0.1,0.1,0.1,0.3c0,0.1,0,0.1-0.1,0.2h-0.2c0,0.2,0,0.4-0.1,0.6c-0.1,0-0.1,0-0.2,0.1c0,0.1,0,0.1-0.1,0.2h-0.2V42h-0.3v0.3
	h-0.6c0,0.2,0,0.3,0.1,0.5h0.3V43c-0.3,0-0.5,0-0.8,0.1v0.2h-0.2v0.2h-0.2v0.3h-0.3c0,0.2,0,0.3-0.1,0.4h-0.2v0.3h-0.3v0.3
	c0,0,0,0-0.1,0.1h-0.2c0,0.1,0,0.1-0.1,0.2v0.1h-0.2c0,0.1,0,0.1-0.1,0.2c-0.1,0.1-0.1,0.1-0.2,0.1c-0.1-0.1-0.1-0.1-0.2-0.1v-0.2
	H43v-0.2h-0.2c-0.1-0.1-0.1-0.3-0.1-0.6h-0.3v0.2h-1v-0.2h-0.6V44h-0.2v-0.2h-0.2v-0.2c-0.2,0-0.3,0-0.4-0.1v-0.2
	c-0.2,0-0.5,0-0.7-0.1C39,42.9,38.3,43,37.8,43c0-0.4,0-0.8,0-1.2h-0.2v-0.2h-0.2v1h-0.3V43h-1c0,0,0,0-0.1,0.1v0.2
	c-0.4,0-0.7,0-1,0v-0.5h0.2v-0.3h-0.7v0.3h0.2V44h-0.2c0,0.2,0,0.3-0.1,0.5h-0.2V45h-0.3c0,0.2,0,0.4-0.1,0.6h-0.2
	c0,0.1,0,0.3-0.1,0.4h-0.2c0,0.2,0,0.4-0.1,0.6h-0.2c0,0.3,0,0.7-0.1,1.1H33c0,0.3,0,0.7-0.1,1h-0.3v0.8h0.3c0,0.4,0.3,0.4,0.3,0.8
	h0.2v0.3h0.3v0.2h0.2V51h0.3v0.3h0.2v0.2h0.2c0,0,0,0,0.1,0.1v0.2c0.1,0,0.3,0,0.4,0.1v0.3h0.3v0.2H36v-0.2h0.2v-0.3h1.9v0.3h0.5
	v2.8c0,0,0,0.1-0.1,0.1h-0.2c0,0.4,0,0.9-0.1,1.2h-0.2c0,0.3,0,0.7-0.1,1h-0.2v0.1c-0.1,0.2-0.1,0.7-0.1,1h-0.2c0,0.4,0,0.9-0.1,1.3
	h-0.2v0.3h-0.3v0.2h0.3v0.3h0.2c0,0.2,0,0.3,0.1,0.5h0.2v0.3c0,0,0,0,0.1,0.1h0.2c0,0.2,0,0.3,0.1,0.5h0.2v0.6h0.2v0.5h-0.2V63h1
	c0,0,0,0,0.1,0.1v0.2c0.2,0,0.5,0,0.7,0.1v0.2h1v-0.3h0.3V63h0.2v-0.2H42v-0.3h0.2v-0.2c0,0,0,0,0.1-0.1h0.2v-0.2h0.3v-0.2
	c0.2,0,0.3,0,0.5,0v-1.6h0.2v-0.8h0.2v-0.8H44v-0.7h0.2c0-0.3,0-0.7,0.1-1.1h0.3v-0.8h0.2c0.1-0.3,0.2-0.3,0.6-0.3v-0.2h0.3v-0.2
	c0.2,0,0.3,0,0.4-0.1c0-0.2,0-0.3,0.1-0.5h0.2c0-0.3,0-0.5,0.1-0.8h0.2v-0.3h0.3v0.3h0.6v-0.3h0.2c0-0.2,0.1-0.3,0.1-0.5
	c0.1,0,0.1,0,0.2-0.1h0.1v-0.5h0.2v-0.5h0.2c0-0.3,0-0.5,0.1-0.7c-0.1,0-0.1,0-0.3-0.1V51h-0.2v-0.2c-0.3,0-0.3-0.1-0.5-0.1v-0.2
	h-0.3v-0.3c-0.1,0-0.3,0-0.4-0.1V50h-0.3v-0.3h-0.3v-0.2c-0.1,0-0.2,0-0.3-0.1v-0.3h-0.3v-0.5h-0.2v-0.6h-0.2c0-0.3,0-0.4,0-0.7h0.2
	v-0.2h0.3v-0.3h0.7v0.3h0.2v0.5h0.3v0.2h0.2c0-0.1,0-0.1,0.1-0.2c0.1-0.1,0.3-0.1,0.5-0.1c0.1,0,0,0,0.1,0.1c0,0.1,0,0.1,0.1,0.2
	c0.1,0.1,0.1,0.1,0.1,0.2h0.2v0.3h0.2v0.3h0.3V49h0.2c0,0.2,0,0.3,0.1,0.5h0.3c0,0.4,0.2,0.4,0.2,0.9h0.2c0,0.3,0,0.4,0,0.6h-0.2
	v3.7h0.2v0.3h-0.2v0.2h-0.8v0.5c-0.3,0-0.4,0-0.7,0c0,0.4-0.1,0.8-0.1,1.2h-0.2c0,0.9-0.2,1-0.3,1.6c-0.1,0-0.1,0-0.2,0.1
	c-0.1,0.1-0.1,0.3-0.1,0.4h-0.2c0,0.2,0,0.3-0.1,0.5h-0.2v0.3h-0.2v0.5h-0.3v0.3h-0.2c0,0.4-0.2,0.3-0.3,0.8h-0.2v0.3h-0.2v0.2h-0.3
	c0,0.1,0,0.3-0.1,0.4c-0.2,0.1-0.2,0.2-0.4,0.3c-0.1,0-0.1,0-0.3,0.1V63c-0.3,0.2-0.3,0.5-0.8,0.6v0.2H43V64h-0.2v0.2h-0.3v0.3h-0.2
	v0.2H42V65c-0.2,0-0.3,0-0.5,0.1v0.2h-0.2v0.2h-0.3v0.3h-0.2v0.3h-0.5v0.2h-0.2v0.2h-0.3c0,0,0,0-0.1,0.1v0.2h-0.3
	c-0.1,0.1,0,0.2-0.2,0.2c-0.1,0.1-0.2,0.1-0.3,0.1v0.2h-0.2v0.3h-0.3v0.2c-0.2,0-0.3,0.1-0.5,0.1v0.2h-0.2v0.2h-0.2
	c0,0-0.1,0.1-0.1,0.1v0.2c-0.1,0-0.3,0.1-0.4,0.1v0.3h-0.3v0.2c-0.3,0-0.6,0-0.9-0.1v-0.2h-0.6v-0.3h-0.3v0.3h-0.5v0.2h-2.1
	c0,0.3,0,0.5-0.1,0.8c-0.8,0-1.2,0.2-2,0.2V70h-0.6v-0.2c-0.2,0-0.3,0-0.5-0.1c0-0.1,0-0.1-0.1-0.2c-0.1-0.1-0.1-0.1-0.3-0.1v-0.3
	h-0.2v-0.2h-0.2v-0.3H28v-0.2h-0.2v-0.3h-0.2v-0.3c-0.4-0.2-0.5-0.7-1-0.8c0-0.1,0-0.1-0.1-0.2v-0.1h-0.2c0-0.1,0-0.1-0.1-0.2
	c-0.1,0-0.1,0-0.3-0.1v-0.2c-0.2,0-0.3,0-0.5-0.1v-0.2h-1.4v0.2c-0.1,0-0.1,0-0.2,0.1h-0.1v0.2c-0.4,0.1-0.4,0.3-0.8,0.3v0.2
	c-0.3,0-0.5,0-0.8,0.1v0.2c-0.7,0.1-1.7,0-2.4,0v-0.2h-0.9c0,0.1,0,0.3-0.1,0.4c-0.1,0-0.3,0-0.4,0.1v-0.3h-0.3v-0.2
	c-0.2,0-0.3,0-0.5-0.1v-0.2c-0.3,0-0.5,0-0.8-0.1v-0.3h-0.3c0-0.1,0-0.1-0.1-0.2c-0.1,0-0.1,0-0.2-0.1v-0.2h0.3v-0.3h-0.3v-0.5h-0.5
	c0,0,0,0-0.1-0.1v-0.2h-0.3v-0.3h-0.3v-1.5h-0.2c-0.1-0.2-0.3-0.2-0.3-0.6h-0.3v-0.3h-0.2v-0.2H14v-0.3h-0.2v-0.2
	c-0.2,0-0.4,0-0.6,0v-0.3h-0.5v-0.3h-0.2v-1h-0.2v-0.2H12v-0.3c-0.3-0.1-0.5-0.4-0.6-0.7h-0.3c-0.1-0.2-0.2-0.3-0.4-0.4
	c0-0.1,0-0.1-0.1-0.2v-0.1h-0.2c0-0.2-0.1-0.2-0.1-0.4h-0.2v-0.3H9.9v-0.3h0.2V57h0.3c0-0.4,0-0.7-0.1-1h-0.2c0-0.3,0-0.5-0.1-0.8
	H9.3v-0.2H9.1v-0.3H8.9v-0.2h0.2v-0.8H8.9c0-0.2,0-1.4-0.1-1.6c-0.1,0-0.1,0-0.2-0.1c-0.2-0.2-0.1-0.6-0.1-1H8.4
	c0-0.4,0-0.8-0.1-1.2H8.1c0-0.4,0-0.9,0-1.3h0.2c0-0.3,0.1-0.7,0.1-1.1h0.2v-0.2H8c0-0.3-0.2-0.3-0.2-0.5c-0.1-0.4,0-1.2,0.1-1.5H8
	c0-0.4,0-0.8,0.1-1.1h0.2c0-0.3,0.1-0.5,0.1-0.8h0.2c0-0.2,0-0.5,0.1-0.7c0.1,0,0.1,0,0.2-0.1h0.1v-0.3h0.3v-0.4h0.2v-0.3h0.3v-0.2
	h0.3v-0.3h0.2v-0.2h0.3v0.2h0.2v0.8h0.2v0.5h0.3v0.2c0,0,0,0,0.1,0.1h0.2c0,0.1,0,0.3,0.1,0.4h0.2v0.3H12v0.2h0.2v0.3h0.2V44
	c0.1,0,0.3,0,0.4,0.1v0.2h0.3v0.2h0.3v0.3h0.3V45H14c0.1,0.2,0.3,0.2,0.3,0.6h0.3v0.3c0.1,0,0.3,0,0.4,0.1c0,0.1,0,0.3,0.1,0.4h0.2
	v0.3h0.3v0.5h0.3v1.1h-0.3c0,0.1,0,0.3-0.1,0.4c-0.2,0-0.3,0-0.4,0.1v0.5h-0.2c0,0.2,0,0.3-0.1,0.5h-0.2c0,0.2,0,0.5-0.1,0.7h-0.2
	c0,0.6,0,0.8,0,1.4h0.2c0,0.3,0,0.5,0.1,0.8h0.2c0,0.2,0,0.4,0.1,0.6h0.2v0.2h0.2v0.3h0.3v0.3h0.3v0.6h-0.3v0.5h-0.3v0.5h-0.2
	c0,0.5-0.4,1.2-0.5,1.8h0.2V57h0.5v2.6h0.3v1.2c0.1,0,0.1,0,0.2,0.1c0.1,0.2,0,0.5,0.1,0.8c0.1,0,0.1,0,0.2,0c0.2,0.3,0.1,1,0.1,1.5
	c0.1,0,0.3,0,0.4,0.1v0.2h1.6v-0.2c0.2,0,0.3,0,0.5-0.1V63h0.2v-0.5h0.2c0-0.3,0-0.5,0.1-0.8h0.2c0-1,0.3-1.1,0.3-2.1H20V59h0.3
	v-0.2h1c0-0.1,0-0.1,0.1-0.2c0.1-0.1,0.3-0.1,0.5-0.1v-0.2H22v-0.2h0.2c0,0,0-0.1,0.1-0.1v-0.2c0.1,0,0.1,0,0.2-0.1h0.1v-0.2
	c0.1,0,0.1,0,0.2-0.1h0.1v-0.3h0.2V57h0.3v-0.5h0.3v-0.2h0.3V56c0,0,0,0,0.1-0.1h0.2c0-0.1,0-0.1,0.1-0.2c0.1-0.1,0.3-0.1,0.5-0.1
	c0-0.3,0-0.7,0.1-0.9h0.2v-0.3h0.3c0,0,0,0,0.1-0.1v-0.2c0.1,0,0.1,0,0.2-0.1c0.1-0.1,0.1-0.3,0.1-0.5c-0.1-0.1-0.1-0.1-0.1-0.3
	c0.5,0,0.5-0.2,1.1-0.2v-0.2c0.2,0,0.3-0.1,0.5-0.1c0-0.1,0-0.1,0.1-0.2c0.1-0.1,0.3,0,0.4-0.1c0.2-0.1-0.1-0.2,0.3-0.3
	c0-0.2,0-0.5-0.1-0.7h-0.2v-0.3c-0.2,0-0.3,0-0.5-0.1c0-0.1,0-0.1-0.1-0.2C26.8,51,26.6,51,26.4,51v-0.2c-0.3,0-0.7,0-1-0.1v-0.2
	h-0.8v-0.3h-0.6V50h-0.5v-0.3h-0.3v-0.2h-0.3c-0.1-0.2-0.1-0.1-0.2-0.2c-0.1-0.2,0-0.6-0.1-0.8c-0.1,0-0.1,0-0.2-0.1
	c0-0.3-0.1-0.5-0.1-0.7h-0.2v-0.3H22v-0.2h-0.3v-0.3h-0.5v-0.3c-0.3,0-0.7,0-1-0.1v-0.2c-0.5,0-1,0-1.5-0.1c0-0.1,0-0.1-0.1-0.2
	c-0.2-0.2-0.9-0.1-1.3-0.1c-0.1,0-0.1,0-0.2-0.1v-0.2h-0.3v-0.5h-0.3c0-0.7-0.3-0.6-0.3-1.3h-0.2c0-0.3,0-0.5-0.1-0.8h-0.2v-0.8
	h-0.3v-0.8h-0.3v-0.8h-0.2c0-0.2,0-0.3-0.1-0.5h-0.2c0-0.2,0-0.4-0.1-0.6h-0.2c0-0.2,0-0.3-0.1-0.5h-0.2v-0.3h-0.2v-0.2h0.2v-0.3
	c0.3,0,0.7,0,1-0.1v-0.3h0.5v-0.2h0.4v-0.2h0.1c0.1-0.1,0.1,0,0.2-0.1c0-0.2,0-0.3,0.1-0.5h0.3V37h0.2v-0.3c0.2,0,0.5,0,0.7,0.1
	c0,0.1,0,0.1,0.1,0.2h1.4c1.2,0.3,2.8,0,4.1,0v-0.2h0.3V36h0.3c0,0,0,0,0.1-0.1v-0.2c0.1,0,0.3,0,0.4-0.1c0.1-0.4,0.7-0.3,1.1-0.2
	V35h0.2c0-0.3,0-0.5,0.1-0.8c0.1,0,0.1,0,0.2-0.1c0.2-0.3,0.1-1.1,0.1-1.5c-0.1-0.1-0.1-0.1-0.1-0.2c-0.5,0-0.5-0.2-1.1-0.2v0.2
	c-0.6,0-1.1,0-1.7,0.1v0.2h0.3v0.2c-0.3,0-0.7,0-1,0v-0.2h-0.6v0.2c0.2,0,0.3,0,0.5,0.1v0.2c-0.3,0.2-0.2,0.3-0.7,0.3v-0.3
	c-0.1,0-0.3,0-0.4-0.1c0,0-0.1-0.6-0.1-0.7c-0.1,0-0.1,0-0.2-0.1c-0.3-0.6,0-2.3,0-3c0.3,0,0.6,0,1,0v0.2c0.2,0,0.4-0.1,0.6-0.1
	v-0.2c0.7-0.1,1.8-0.1,2.5,0v0.2h0.5c0.1-0.3,0.2-0.4,0.3-0.7c0.2,0,0.4,0,0.6-0.1v-0.2c0.2,0,0.5,0,0.7-0.1v0.2h0.3V29h0.3v0.2
	c0.1,0,0.1,0,0.2,0.1h0.1v0.2H28v-1h0.3V28.2z"/>
<rect x="34.8" y="29.8" class="st0" width="0.2" height="0.2"/>
<path class="st0" d="M53.3,30.5h2.9v0.3c0.5,0,1,0.2,1.1,0.6c0.2,0,0.3,0,0.4,0.1c0,0.1,0,0.1,0.1,0.2v0.1h0.2
	c0,0.2,0.1,0.2,0.1,0.4c0.1,0,0.1,0,0.2,0.1c0.1,0.1,0.1,0.3,0.1,0.4c0.1,0,0.1,0,0.2,0.1c0.1,0.1,0.1,0.3,0.1,0.5h0.2
	c0,0.6,0,1.4,0,2.1h-0.2c0,0.3,0,0.7-0.1,1.1h-0.2v0.5H58c0,0.1,0,0.2-0.1,0.3h-0.2v0.3h-0.2v0.2h-0.3v0.2h-0.4v0.3h-0.6v0.2
	c-0.3,0-0.5,0-0.8,0.1v0.2c-0.7,0-1.6,0-2.3,0v-0.2c-0.3,0-0.5,0-0.7-0.1v-0.2h-0.5v-0.3h-0.3v-0.2h-0.3v-0.2H51v-0.3
	c0,0,0,0-0.1-0.1h-0.2c0-0.2-0.1-0.3-0.1-0.5h-0.2c0-0.3,0-0.5-0.1-0.8h-0.2c-0.1-0.6,0-1.4,0-2h0.2c0-0.3,0-0.5,0.1-0.8h0.2
	c0-0.2,0-0.3,0.1-0.5c0.1,0,0.1,0,0.2-0.1H51v-0.2h0.2v-0.3h0.3v-0.2h0.2v-0.2H52c0,0,0-0.1,0.1-0.1v-0.2c0.2,0,0.3,0,0.5-0.1v-0.2
	c0.2,0,0.5,0,0.7-0.1V30.5z"/>
<path class="st0" d="M68.9,37.8h1.8c0,0,0,0,0.1,0.1v0.2h0.5v0.2h0.5c0,1.1,0.1,2.3-0.1,3.3h-0.2v0.6h-0.3v0.5H71
	c0,0.2,0,0.3-0.1,0.5c-0.1,0-0.1,0-0.2,0.1h-0.1v0.2c-0.1,0-0.1,0-0.2,0.1c0,0.1,0,0.1-0.1,0.2h-0.2V44h-0.5v0.3h-0.3v0.2
	c-0.6,0-0.4,0.2-0.7,0.3h-0.8c0,0.1,0,0.1-0.1,0.2c-0.3,0.2-1.4,0-2,0v-0.2h-0.3v-0.3h-0.2v-0.3H65c0-0.5-0.5-1.2-0.2-1.7
	c0.1,0,0.1,0,0.2-0.1c0-0.3,0.1-0.7,0.1-1h0.2v-0.6h0.2c0-0.2,0-0.3,0.1-0.5h0.2v-0.2c0,0,0,0,0.1-0.1H66v-0.2h0.3v-0.3h0.2v-0.3
	c0.3-0.2,0.3-0.5,0.8-0.6v-0.3h0.2c0-0.1,0-0.1,0.1-0.2c0.1-0.1,0.3-0.1,0.5-0.1v-0.2h0.7V37.8z"/>
<path class="st0" d="M36.6,39.4v1.8h0.5v-0.5h0.3v-0.3h-0.3c0-0.3,0-0.7-0.1-1.1H36.6z"/>
<path class="st0" d="M60.6,43.5v0.3h0.2V44h0.3c0,0.2,0,0.3,0.1,0.5h0.2c0,0.6,0.2,1.5,0.1,2.1c-0.1,0.4-0.3,0.5-0.3,1h-0.3v0.6
	h-0.2v0.4h-0.3V49h0.3v0.2h0.2v0.3h-0.5v0.3c-0.2,0-0.4,0-0.6,0.1V50h-0.5v0.2h-0.5v0.3h-0.3v0.2c-0.1,0-0.3,0-0.4,0.1V51h-0.3v0.3
	c-0.2,0-0.3,0-0.5,0.1c0,0.1,0,0.1-0.1,0.2c-0.1,0.1-0.4,0.1-0.6,0.1v0.2c-0.4,0-0.8,0-1.1,0v-0.2c-0.2,0-0.4,0-0.6-0.1
	c0-0.1,0-0.1-0.1-0.2c-0.1,0-0.1,0-0.2-0.1v-0.4h-0.2v-0.3h-0.3V50h-0.2c0-0.2,0-0.4-0.1-0.6h-0.2c0-0.2,0-0.5-0.1-0.7h-0.3v-0.9
	h-0.2v-0.6h0.2c0-0.8,0.2-1,0.3-1.6h0.2v-0.3h0.3c0,0,0,0,0.1-0.1V45h0.3c0-0.1,0-0.3,0.1-0.4c0.1,0,0.1,0,0.2-0.1h0.1v-0.2
	c0.1,0,0.3,0,0.4-0.1V44h0.3v-0.3c0.2,0,0.3,0,0.5,0v-0.2c0.2,0,0.3,0,0.5-0.1v-0.2c0.2,0,0.5,0,0.7-0.1c0.1-0.4,1.8-0.3,2.4-0.3
	C59.6,43.2,60.3,43.5,60.6,43.5"/>
<path class="st0" d="M131.4,71.4h-6.1l-12.1-35l0.8-1.2h10.3V11.1h-14.9v60.2h-5.8V6h21.8c1.4,0,2.5,0.4,3.3,1.3
	c0.9,0.9,1.3,2,1.3,3.3v24.8c0,3.1-2.1,4.7-6.3,4.7c-0.4,0-1,0-1.8,0c-0.8-0.1-1.4-0.1-1.8-0.1C124,50.5,127.7,60.9,131.4,71.4"/>
<path class="st0" d="M162.1,66.6c0,3.2-1.6,4.7-4.7,4.7h-13.3c-3.1,0-4.7-1.6-4.7-4.7V35.5c0-3.2,1.6-4.7,4.7-4.7h13.3
	c3.1,0,4.7,1.6,4.7,4.7v14.6l-1.9,2h-15.4v14.7h11.9v-7.4h5.4V66.6z M156.7,35.3h-11.9v12.3h11.9V35.3z"/>
<path class="st0" d="M194.2,71.4h-5.5v-1.1c-2.2,0.3-4.4,0.6-6.6,0.9c-2.7,0.3-4.9,0.5-6.5,0.5c-3,0-4.5-1.5-4.5-4.5V52.3
	c0-3.1,1.6-4.7,4.7-4.7h13V35.3h-11.9v6.9h-5.4v-6.8c0-3.2,1.6-4.7,4.7-4.7h13.3c3.1,0,4.7,1.6,4.7,4.7V71.4z M188.8,66.3V51.9
	h-12.4v14.6L188.8,66.3z"/>
<path class="st0" d="M225.8,66.6c0,3.2-1.6,4.7-4.7,4.7H208c-3.1,0-4.7-1.6-4.7-4.7V35.4c0-3.1,1.6-4.7,4.7-4.7h13.2
	c3.1,0,4.7,1.6,4.7,4.7v8.1h-5.5v-7.9h-11.5v30.9h11.5v-9.1h5.5V66.6z"/>
<path class="st0" d="M258.1,71.4h-5.5V35.7L240.3,36v35.3h-5.5V6h5.5v25.9c2.2-0.3,4.4-0.6,6.6-0.8c2.8-0.4,5-0.5,6.5-0.5
	c3.1,0,4.6,1.5,4.6,4.5V71.4z"/>
<path class="st0" d="M306.7,71.4h-5.5v-1.1c-2.2,0.3-4.4,0.6-6.6,0.9c-2.7,0.3-4.9,0.5-6.5,0.5c-3,0-4.5-1.5-4.5-4.5V52.3
	c0-3.1,1.6-4.7,4.7-4.7h13V35.3h-11.9v6.9H284v-6.8c0-3.2,1.5-4.7,4.7-4.7H302c3.1,0,4.7,1.6,4.7,4.7V71.4z M301.3,66.3V51.9H289
	v14.6L301.3,66.3z"/>
<path class="st0" d="M347.8,3.7v15.2c1.4-1.3,3-2.3,4.7-3c1.7-0.7,3.5-1,5.4-1c2.9,0,5.4,0.7,7.5,2.2c2.1,1.5,3.3,3.2,3.8,5.2
	c0.4,2,0.7,5.5,0.7,10.7v38.2h-16.9v-39c0-3.2-0.2-5.3-0.5-6.2c-0.3-0.9-1-1.4-2.1-1.4c-1,0-1.7,0.5-2.1,1.4
	c-0.4,0.9-0.5,2.8-0.5,5.6v39.6H331V3.7H347.8z"/>
<path class="st0" d="M390.8,37.4H375v-3.7c0-4.3,0.5-7.6,1.5-9.9c1-2.3,3-4.4,6-6.2c3-1.8,6.8-2.7,11.6-2.7c5.7,0,10,1,12.9,3
	c2.9,2,4.6,4.5,5.2,7.4c0.6,3,0.9,9,0.9,18.1v27.8h-16.4v-4.9c-1,2-2.4,3.5-4,4.4c-1.6,1-3.6,1.5-5.8,1.5c-2.9,0-5.7-0.8-8.1-2.5
	c-2.4-1.7-3.7-5.3-3.7-10.9v-4.5c0-4.2,0.7-7,1.9-8.5c1.3-1.5,4.6-3.3,9.7-5.3c5.5-2.2,8.5-3.7,8.9-4.4c0.4-0.8,0.6-2.3,0.6-4.6
	c0-2.9-0.2-4.8-0.6-5.7c-0.4-0.9-1.1-1.3-2.2-1.3c-1.1,0-1.8,0.4-2.1,1.1c-0.3,0.7-0.4,2.6-0.4,5.7V37.4z M396.1,45
	c-2.7,2-4.3,3.6-4.7,5c-0.4,1.3-0.6,3.3-0.6,5.8c0,2.9,0.2,4.7,0.6,5.5c0.4,0.8,1.1,1.3,2.2,1.3c1,0,1.7-0.3,2.1-1
	c0.3-0.7,0.5-2.4,0.5-5.2V45z"/>
<path class="st0" d="M435.9,15.9l-0.3,5.1c1.2-2,2.7-3.6,4.5-4.6c1.8-1,3.8-1.5,6.1-1.5c2.9,0,5.3,0.7,7.1,2.1
	c1.8,1.3,3,3.1,3.5,5.1c0.5,2.1,0.8,5.5,0.8,10.4v38.8h-16.8V33c0-3.8-0.1-6.1-0.4-7c-0.3-0.8-1-1.2-2.1-1.2c-1.2,0-2,0.5-2.2,1.4
	c-0.3,1-0.5,3.5-0.5,7.7v37.5h-16.8V15.9H435.9z"/>
<path class="st0" d="M501.7,3.7v67.6h-16.8v-4c-1.6,1.7-3.3,2.9-5.1,3.8c-1.8,0.9-3.6,1.3-5.6,1.3c-2.6,0-4.9-0.7-6.8-2.1
	c-1.9-1.4-3.1-3-3.7-4.8c-0.5-1.8-0.8-4.8-0.8-8.9V30.7c0-4.2,0.3-7.3,0.8-9.1c0.6-1.8,1.8-3.3,3.7-4.7c1.9-1.4,4.3-2,6.9-2
	c2.1,0,4,0.4,5.7,1.1c1.7,0.8,3.3,1.9,4.7,3.4V3.7H501.7z M484.9,29.9c0-2-0.2-3.4-0.5-4.1c-0.3-0.7-1-1-2.1-1c-1,0-1.7,0.3-2,0.9
	c-0.4,0.6-0.5,2-0.5,4.2V57c0,2.2,0.2,3.7,0.5,4.4c0.3,0.7,1,1.1,1.9,1.1c1.1,0,1.8-0.4,2.2-1.2c0.4-0.8,0.5-2.7,0.5-5.8V29.9z"/>
</svg>
