<svg id="Layer_1" data-name="Layer 1" xmlns="http://www.w3.org/2000/svg" viewBox="0 0 398.05 234.53"><defs><style>.cls-1{fill:#fff;}</style></defs><title>rahu_logo</title><path class="cls-1" d="M192.26,0.89h5V1.53c0.4,0,.81.08,1.21,0.15V2.12h0.74V2.73c1.1,0.09.84,0.61,1.84,0.76v0.6h0.75v0.6h0.45a4.91,4.91,0,0,0,.61,2.58A52.16,52.16,0,0,1,203,17.42a12,12,0,0,0-.76,3.63h-0.45c-0.05.66-.11,1.31-0.15,2H201v1.22h-0.61c-0.07,1.11-.5.94-0.62,2H199.2V26.8h-0.74v0.62h-0.59V28h-0.62v0.6h-0.61v0.62l-1.22.15a0.61,0.61,0,0,1-.14.44,2.25,2.25,0,0,1-1.21.17v0.61h-2v0.6H189.7V30a26.63,26.63,0,0,1-3.62-.17,10.54,10.54,0,0,1-.17-1.08,0.57,0.57,0,0,1-.45-0.13c-1.29-2-.76-6.08-0.76-8.93V16.06a5.58,5.58,0,0,1,.6-0.76V13h0.6a6.7,6.7,0,0,1,.17-1.8h0.43V10.29h0.61c0.08-1,.35-0.61.6-1.05,0.34-.62,0-2.18.16-2.73h0.46c0-.41.11-0.81,0.14-1.22h0.59V3.49h1.83V2.12h0.6V1.53h0.77V0.89Z" transform="translate(0 -0.89)"/><path class="cls-1" d="M242.16,9.85H245v0.45c0.65,0.07,1.32.12,2,.17v0.45c0.42,0,.81.08,1.21,0.14a0.79,0.79,0,0,0,.16.45,1,1,0,0,0,.6.16v0.58h0.59v0.62h0.62v0.6h0.6v0.78h0.46a27.15,27.15,0,0,1,0,7.26h-0.46V23h-0.6v0.61h-0.62v1.22H249v0.59l-0.15.16h-0.45v0.61h-0.75V26.8H247v0.62h-0.6v0.74h-0.61v0.59h-0.61v0.64h-0.59V30H244a5.74,5.74,0,0,1-.3,1h-0.47v0.77h-0.59V32.4H242V33a0.48,0.48,0,0,0-.15.16h-0.45a0.89,0.89,0,0,1-.16.44v0.16h-0.46v0.6H240V35h-0.59v0.59h-0.61v0.63h-0.61v0.59a3.78,3.78,0,0,1-2,.6V35.59c-0.54.08-3.23,1-4.24,0.46,0-.16-0.13-0.3-0.16-0.46h-1.2V35h-0.76V34.39H229.3v-0.6h-0.59V32.56a0.7,0.7,0,0,1-.47-0.16,2.34,2.34,0,0,1-.15-1.2h1.2V30.61h-0.59V30H228.1V29.24H227.5v-2H227V26.21h0.46a19.46,19.46,0,0,1,.16-3h0.43V21.82h0.61V20.45h0.59c0.05-.35.11-0.71,0.17-1.06h0.45V18.64h0.6a5.29,5.29,0,0,1,.31-1.23h0.45V16.67h0.6V16.06h0.6V15.44h0.6V14.84h0.61l0.17-.15V14.26a1,1,0,0,0,.45-0.18h0.14V13.62c0.4,0,.79-0.08,1.22-0.14v-0.6h0.6V12.25h0.89V11.81h0.32a5,5,0,0,1,2.56-.89V10.46c0.73-.05,1.43-0.1,2.13-0.17V9.85Z" transform="translate(0 -0.89)"/><path class="cls-1" d="M185.91,35a25.69,25.69,0,0,1,4.83.14v0.44h2a1.63,1.63,0,0,0,.17.16v0.47h1.21v0.59h0.6L194.83,37v0.45c0.41,0.08.81,0.1,1.21,0.15v0.6h0.45c0.07,0.39.11,0.81,0.16,1.21h0.61V41.2h0.45v1.36h-0.45V45h-0.61v2H196V48.8l-0.15.12h-0.46c0,0.57-.09,1.13-0.14,1.68a0.82,0.82,0,0,0-.46.16,1.19,1.19,0,0,0-.16.75h-0.44a0.76,0.76,0,0,1-.16.45,0.84,0.84,0,0,1-.59.15v0.47c-1.93.13-3.93,1.48-6.35,0.76a2,2,0,0,1-.62-0.6c-0.84-.07-1.73-0.13-2.58-0.16V52.11c-0.61,0-1.2-.08-1.8-0.15v-0.6h-0.75v-0.6h-1.07V50.14h-0.76V48H179.1V45.74h0.46v-7h0.6V38.17h0.62l0.15-.14V37.42h0.6V37h0.61l0.16-.16V36.37a4.28,4.28,0,0,0,1.65-.78h2V35Z" transform="translate(0 -0.89)"/><path class="cls-1" d="M226.73,40.16v0.45h0.78V41.2h0.59V42h0.61v0.59h0.76v0.61h0.6v0.76h0.6V45h0.61v1.36h0.6v1.36h0.62v1.67l0.14,0.15h0.44c0.16,2.49.74,3.89,0.78,6.81l-0.17.16h-0.45c-0.05.42-.1,0.81-0.16,1.21H232.5v0.59h-0.62c0,0.4-.1.82-0.15,1.24h-0.45V60.3h-0.61c0,0.37-.11.7-0.16,1.06a0.85,0.85,0,0,0-.45.14,1,1,0,0,0-.16.62h-0.45a2.44,2.44,0,0,1-.32,1.65v0.16l-1.64.16v0.46l-2.59.14v0.6h-5.59V64.7h-2v-0.6l-1.81-.16V63.47c-0.4,0-.82-0.09-1.21-0.16a0.86,0.86,0,0,0-.15-0.44,1.2,1.2,0,0,0-.63-0.15v-0.6H213V61.49c-0.35,0-.71-0.08-1.07-0.14-0.11-.57-0.21-0.42-0.32-1.06h-0.43V59.7h-0.6a3,3,0,0,1-.15-0.92h-0.46c0-.39-0.08-0.81-0.15-1.2h-0.44c-0.06-.6-0.11-1.22-0.16-1.82h-0.6V48.33h0.6c0-.66.09-1.31,0.16-2h0.44c0.07-.4.1-0.8,0.15-1.22h0.46V44.55a0.66,0.66,0,0,1,.15-0.16H211a0.75,0.75,0,0,1,.15-0.46V43.78h0.43c0.08-.41.11-0.81,0.16-1.22h0.62V42H213v-0.6h0.58V40.75c2-.08,4.18-0.14,6.52-0.14V40.16a30.77,30.77,0,0,1,6.65,0" transform="translate(0 -0.89)"/><path class="cls-1" d="M272.11,42.56v0.61h1.37v0.61l1.21,0.15a0.69,0.69,0,0,0,.14.46v0.16h0.47a0.63,0.63,0,0,0,.15.45,0.91,0.91,0,0,0,.61.14v0.64h0.43v0.59a0.75,0.75,0,0,1,.16.14h0.45a1,1,0,0,0,.16.47v0.16h0.47v0.45c0.5,0.14.47,0.05,0.6,0.59h0.76a15.34,15.34,0,0,1,.15,3.94,9.48,9.48,0,0,0-.15,1.07,2.2,2.2,0,0,0-.62.77V55.9c-0.27.74-.59,0.27-0.59,1.83h-0.61v1.83h-0.61v1.34h-0.59c-0.08.42-.12,0.83-0.17,1.22h-0.43v0.6h-0.62c-0.11,1-.61,1-0.75,2h-0.6v0.6h-0.62v0.6h-0.59v0.62h-0.61v0.6a4.45,4.45,0,0,1-.77.17v0.59H270.3v0.61h-0.62V69.1h-0.59v0.59h-0.61v0.61h-0.62a0.25,0.25,0,0,1-.14.14V70.9C267.37,71,267,71,266.66,71a0.66,0.66,0,0,1-.14.46,1,1,0,0,1-.6.15v0.62H264.7v0.6h-3.18v-0.6h-1.21V71.65h-0.6a0.94,0.94,0,0,0-.16-0.15V71c-0.4,0-.79-0.08-1.21-0.15V70.29h-0.58V69.68h-0.63V69.1h-0.59V68.49h-0.58c-0.14-1.1-.7-0.79-0.77-2h-0.61V65.29H254v-3.8h0.61V60.15h0.61V58.93h0.6c0.06-.4.11-0.82,0.17-1.21h0.46V57.11a0.68,0.68,0,0,1,.12-0.15H257c0-.37.09-0.72,0.12-1.07h0.63c0-.4.09-0.81,0.13-1.2h0.45V53.95H259V53.33a0.47,0.47,0,0,1,.16-0.15h0.43c0.06-.37.11-0.71,0.16-1.07h0.45V51.35h0.6c0-.39.1-0.8,0.13-1.21h0.62v-0.6h0.61V48.8h0.62c0-.33.11-0.63,0.16-0.93,0.44-.24.64-0.54,1-0.74A1,1,0,0,1,264.7,47V46.5h1.06V47h0.76c0-.56.11-1.11,0.14-1.68h0.45c0.06-.48.09-1,0.15-1.51h0.59V43.17h1.37V42.71c0.82-.08,1.86-0.15,2.87-0.15" transform="translate(0 -0.89)"/><path class="cls-1" d="M121,54.55h6.18c0.07,0.4.1,0.83,0.16,1.21H128v0.59h0.61v0.76h0.6v0.61h0.61v0.59h0.59c0.13,1,.63.86,0.76,1.83a0.56,0.56,0,0,1,.45.15,0.86,0.86,0,0,1,.16.6h0.61v1.22H133v1.35h0.59V69.1H133v1.19h-0.61a0.66,0.66,0,0,1-.15.18V70.9c-0.81.06-1.61,0.1-2.42,0.15v0.47a0.62,0.62,0,0,0-.45.14,2.43,2.43,0,0,0-.15,1.22H126v-0.6c-0.6-.05-1.2-0.13-1.82-0.17v0.77l-1.81-.15V72.27h-0.75V71.65c-0.41-.06-0.8-0.11-1.22-0.14V71h-0.59V70.46a2,2,0,0,0-.76-0.18V69.68h-0.6V69.1h-0.59V68.33h-0.48c0-.41-0.1-0.8-0.13-1.22h-0.62V65.89H116a5.46,5.46,0,0,0-.12-2.12,1.32,1.32,0,0,1-.48-0.3c-0.65-1.82.6-3.6,0.6-5.15h0.62V57.72h0.62V57h0.61V56.35h0.59V55.76c1.08-.1,1.15-0.6,2.58-0.6v-0.6Z" transform="translate(0 -0.89)"/><path class="cls-1" d="M179,64.7a18.5,18.5,0,0,1,2.42.16V65.3h0.74v0.59c0.36,0.06.72,0.1,1.05,0.17a7.29,7.29,0,0,0,2.59,2.56V69.1h0.74V68.49c0.65-.08,1.31-0.1,2-0.16,0.06-.15.09-0.3,0.14-0.45a4,4,0,0,1,.45.16v0.3c1.23,0.08,2.43.18,3.63,0.29V69.1h2.13v1.2H196V71h0.6v0.47H196V72.1c-0.05,0-.1.12-0.15,0.17h-0.46v0.6h5.74c0.13-.48-0.06-0.25.32-0.45,0.17,0.66.4,0.4,0.59,1.06a1,1,0,0,1,.16.61h0.62v0.59l1.8,0.16V75.3c0.86,0,1.72.12,2.58,0.15a0.8,0.8,0,0,0,.14.47,2.38,2.38,0,0,0,1.22.13v0.6a10.77,10.77,0,0,0,1.07.16c0,0.57.1,1.11,0.13,1.67a0.69,0.69,0,0,0-.44.17,0.67,0.67,0,0,0-.16.43c0.3,0.1.91,0.21,1.21,0.32a10.13,10.13,0,0,1,0,2.27,0.67,0.67,0,0,0-.46.14,1.08,1.08,0,0,0-.15.61,3.78,3.78,0,0,0-1.2.3v2.72h0.6c0,0.42.09,0.81,0.16,1.2h0.44c0.07-.35.1-0.69,0.15-1h0.46a0.56,0.56,0,0,0,.15.45v0.13H211c0.19,0.84.55,0.57,0.59,1.7-0.4.23-.37,0.13-0.43,0.74h-0.6a1,1,0,0,1-.15-0.15V88h-1.81V87.41h-1.22V86.81c-1.2,0-.94-0.62-2-0.75V85.45h-0.61v0.74h-0.6v0.45h1.22c0.05,1,.39.82,0.45,1.83-0.52.14-.47,0.06-0.62,0.61h-0.45v0.75h-0.6c0,1.65,0,3.59-.15,5h-1.2v0.75h1.35V96.2h0.6v0.6H206v0.62a12.21,12.21,0,0,0,2,0V96.8h1.37V96.36l1.05-.15v0.6h1.19a1.1,1.1,0,0,1,.16.17v0.45h0.62V98l1.19,0.15v0.62h0.63v0.58h0.75V100h0.61v0.76h0.6v0.45l3,0.13c0-.05.09-0.08,0.15-0.13v-0.61h0.61v-1.8h-0.61V98.17c1.13-.08,2.1-0.08,3.17-0.15V97.42h0.61A0.75,0.75,0,0,0,223,97a1.29,1.29,0,0,0-.6-0.17V96.2h-1.22V95.59h0.61V95c0.9-.08.79-0.42,1.36-0.61l3-.16a1.6,1.6,0,0,1,.16.77,1.45,1.45,0,0,0-.16.43h-0.42c0,0.46-.09.93-0.16,1.37a0.76,0.76,0,0,0-.46.17,1.14,1.14,0,0,0-.16.6h-0.58v0.61h-0.62v0.62h-1.35c0,0.4.11,0.79,0.14,1.2h0.61v0.6c-0.64,0-1.3.08-2,.16v0.59h-0.6v0.47h-0.6v0.74h-0.61c-0.05.38-.1,0.71-0.15,1.07h-0.44v0.74h-0.62V105a1.18,1.18,0,0,0-.16.16H217.5a0.7,0.7,0,0,1-.14.45v0.15h-0.45a0.62,0.62,0,0,1-.16.45,0.92,0.92,0,0,1-.6.18,1,1,0,0,0-.6-0.18v-0.45h-0.61v-0.6h-0.6a4.15,4.15,0,0,1-.15-1.36h-0.63v0.58h-2.4v-0.58h-1.37v-0.64h-0.6v-0.59h-0.6V102l-1.06-.16v-0.47l-1.81-.13c-0.46-.89-2.16-0.66-3.48-0.61,0.06-1.06,0-1.83,0-3h-0.6V97H201v2.4h-0.61v1.22H198a0.39,0.39,0,0,0-.14.16v0.45a13.12,13.12,0,0,1-2.44,0V100h0.46V99.37h-1.66V100h0.44v3.15h-0.44c-0.06.44-.11,0.83-0.16,1.22h-0.59v1.23h-0.62c-0.05.45-.1,0.9-0.17,1.35h-0.43c-0.07.36-.11,0.73-0.16,1.05h-0.47c0,0.48-.09.93-0.14,1.39H191c0,0.84-.1,1.71-0.15,2.58h-0.45c0,0.81-.11,1.62-0.14,2.41h-0.61v2h0.61c0.11,1,.63.94,0.74,2h0.6v0.62h0.63v0.6h0.6v0.59h0.62v0.64h0.59v0.59h0.6a1,1,0,0,0,.16.16V122l1.06,0.14v0.61h0.76v0.6h1.22v-0.6h0.59v-0.61H203v0.61h1.2v6.81a2.08,2.08,0,0,1-.15.15H203.6a22.29,22.29,0,0,1-.16,3H203c0,0.81-.11,1.65-0.14,2.44H202.4v0.29a5.8,5.8,0,0,0-.16,2.44h-0.45c-0.05,1.06-.11,2.12-0.15,3.17H201v0.62h-0.61v0.6H201v0.61h0.6c0,0.4.09,0.8,0.15,1.2h0.45v0.62a0.46,0.46,0,0,0,.16.13h0.46c0,0.43.09,0.83,0.14,1.25h0.6v1.35h0.46v1.21H203.6v0.61H206a0.3,0.3,0,0,1,.15.16v0.44c0.56,0,1.1.11,1.69,0.14v0.47h2.55v-0.62h0.76v-0.6h0.6v-0.61h0.62V148H213v-0.59l0.15-.16h0.43v-0.6h0.78v-0.47c0.4,0,.82-0.11,1.21-0.12v-3.81h0.6v-2h0.6v-1.84h0.61v-1.82H218c0.05-.84.1-1.69,0.16-2.56h0.62v-2h0.44c0.19-.69.49-0.67,1.35-0.62v-0.6h0.76v-0.47c0.37-.05.71-0.08,1.06-0.17,0-.39.11-0.8,0.14-1.2H223c0-.66.1-1.32,0.14-2h0.61V126.5h0.62v0.61h1.35V126.5h0.42a8.11,8.11,0,0,0,.16-1.21,0.76,0.76,0,0,0,.46-0.15h0.17v-1.2h0.61v-1.22h0.59c0.06-.61.11-1.2,0.15-1.82a2.13,2.13,0,0,0-.74-0.13v-0.64H226.9v-0.45a5.74,5.74,0,0,1-1.21-.29v-0.44h-0.78v-0.62c-0.35-.05-0.7-0.08-1-0.16v-0.43H223.1V117.1h-0.61v-0.6a2.13,2.13,0,0,0-.75-0.15v-0.62h-0.61v-1.18h-0.6v-1.38h-0.6a7.84,7.84,0,0,0,0-1.82h0.6v-0.61h0.76v-0.61h1.81v0.61h0.61V112h0.62v0.59h0.58a0.92,0.92,0,0,1,.16-0.46,2.3,2.3,0,0,1,1.2-.13,0.57,0.57,0,0,0,.3.13c0.06,0.16.11,0.32,0.16,0.46a1,1,0,0,1,.17.61h0.61v0.75h0.59v0.63h0.61v0.59h0.59c0.05,0.42.11,0.81,0.14,1.22h0.63c0.08,1,.56.91,0.6,2.13h0.46a4.33,4.33,0,0,1,0,1.51h-0.46v9.08h0.46v0.61h-0.46v0.59h-2v1.23a9.65,9.65,0,0,0-1.81,0c0,1-.12,2-0.17,3h-0.46c0,2.1-.6,2.34-0.74,3.93a0.7,0.7,0,0,0-.46.16,2,2,0,0,0-.16,1.05h-0.58c-0.06.42-.12,0.83-0.18,1.23h-0.45v0.76H223.1v1.21h-0.61v0.74H221.9c-0.1,1.07-.61.84-0.77,1.83h-0.6v0.62h-0.6v0.59h-0.61c-0.05.34-.1,0.7-0.15,1.06a11.47,11.47,0,0,1-1.06.77,1.08,1.08,0,0,1-.62.14v0.61c-0.77.41-.82,1.22-1.95,1.36v0.6h-0.61v0.63h-0.6v0.58h-0.78V153H213v0.57h-0.61v0.64l-1.22.14V155h-0.6v0.6h-0.76v0.63h-0.6v0.61H208v0.6h-0.6V158h-0.62a0.73,0.73,0,0,1-.13.16v0.47H206a0.74,0.74,0,0,1-.43.58,1.7,1.7,0,0,1-.77.17V160h-0.6v0.61h-0.76v0.47a4,4,0,0,0-1.2.27v0.47h-0.6v0.59H201a2.09,2.09,0,0,1-.18.16V163a8.28,8.28,0,0,1-1.06.14v0.63h-0.74v0.59c-0.76,0-1.53-.08-2.3-0.14v-0.45h-1.49v-0.62h-0.62v0.63h-1.19v0.59h-5c0,0.63-.09,1.23-0.14,1.84-1.87.12-2.82,0.59-4.85,0.59v-0.47h-1.36v-0.59l-1.2-.15a0.78,0.78,0,0,0-.15-0.45,0.89,0.89,0,0,0-.62-0.15v-0.63h-0.6v-0.59H179v-0.62h-0.61v-0.6h-0.6v-0.75h-0.59v-0.62c-0.89-.53-1.32-1.72-2.43-2a1,1,0,0,0-.14-0.46v-0.12H174.1a0.71,0.71,0,0,0-.13-0.47,1.08,1.08,0,0,0-.61-0.16v-0.45c-0.41,0-.81-0.11-1.21-0.15v-0.6h-3.34v0.6a0.66,0.66,0,0,0-.43.15h-0.15V158c-1,.13-0.89.65-2,0.75v0.46l-2,.17v0.46a48.67,48.67,0,0,1-5.9,0v-0.46h-2.12c0,0.33-.09.7-0.15,1l-1.05.16V160h-0.62v-0.59l-1.2-.17v-0.46c-0.65,0-1.29-.1-2-0.12V158h-0.61a0.72,0.72,0,0,0-.15-0.45,1.1,1.1,0,0,0-.59-0.15v-0.6h0.74V156.2h-0.61V155h-1.22s-0.08-.08-0.12-0.16v-0.44H148.1V153.6h-0.62V150h-0.59a2.22,2.22,0,0,1-.74-1.35h-0.63V148h-0.58v-0.59H144.3v-0.76h-0.59v-0.47c-0.44,0-.91-0.11-1.37-0.12v-0.62h-1.22v-0.64h-0.6v-2.55h-0.59v-0.6h-0.61V141a2.47,2.47,0,0,1-1.36-1.82h-0.62a1.58,1.58,0,0,0-1-.91,0.58,0.58,0,0,0-.17-0.45v-0.15h-0.43c-0.09-.57-0.2-0.52-0.32-1.08h-0.6V135.9h-0.45v-0.62h0.45v-0.61h0.76a22.48,22.48,0,0,0-.16-2.42h-0.45c-0.05-.65-0.11-1.3-0.15-2H133v-0.59h-0.59v-0.61h-0.45v-0.61h0.45v-2h-0.45a24.17,24.17,0,0,0-.16-3.79c-0.16-.06-0.31-0.09-0.45-0.15a5.29,5.29,0,0,1-.31-2.44h-0.43c0-1-.11-2-0.18-3H130a23.42,23.42,0,0,1,0-3.18h0.43c0.07-.83.13-1.71,0.18-2.56H131v-0.61h-1.2c-0.08-.84-0.43-0.69-0.61-1.22-0.36-1,.06-2.82.15-3.61h0.45a18.23,18.23,0,0,1,.15-2.6h0.43c0.07-.66.13-1.3,0.18-2H131c0.06-.59.12-1.22,0.15-1.8a0.64,0.64,0,0,0,.45-0.16h0.16V98.63h0.61V97.57H133V96.8h0.61V96.2h0.61V95.59h0.6V95h0.76v0.59h0.59v2h0.59v1.22h0.61v0.58a2.17,2.17,0,0,0,.16.16H138c0,0.35.11,0.72,0.14,1.06h0.6v0.61h0.62v0.61h0.61v0.74h0.59v0.59a9.22,9.22,0,0,0,1.05.17v0.47h0.76v0.58h0.75V105h0.62v0.6h0.59c0.33,0.58.67,0.45,0.76,1.35h0.62v0.61a10.1,10.1,0,0,0,1.06.16c0,0.35.1,0.71,0.14,1.06h0.59v0.74h0.62v1.22h0.61v2.56H148.1c0,0.36-.12.74-0.14,1.08-0.38,0-.72.11-1.07,0.16v1.18h-0.6c0,0.41-.1.83-0.14,1.24h-0.46c0,0.59-.11,1.19-0.17,1.82h-0.45c0,1.44,0,2,0,3.32h0.45c0.06,0.61.12,1.21,0.17,1.83h0.46c0,0.46.09,0.89,0.14,1.35h0.6v0.6h0.59v0.61h0.62v0.61h0.61v1.35H148.1v1.22h-0.62v1.22h-0.59c-0.06,1.23-1,3-1.2,4.38h0.46v-0.61h1.34V141h0.62v3a0.75,0.75,0,0,1,.46.16c0.27,0.43-.12,1.27.15,1.84a2.59,2.59,0,0,1,.45.12c0.49,0.78.3,2.48,0.3,3.64,0.35,0,.7.11,1.05,0.14v0.47h3.93V150c0.4,0,.83-0.09,1.23-0.14v-0.6h0.59V148h0.61c0-.66.09-1.29,0.16-1.94h0.46c0-2.33.71-2.74,0.75-5h0.6v-1.37h0.63v-0.6h2.39a0.69,0.69,0,0,1,.17-0.45,2.7,2.7,0,0,1,1.2-.16v-0.59h0.62v-0.6h0.6a1.48,1.48,0,0,1,.16-0.18v-0.45a0.54,0.54,0,0,0,.44-0.16h0.14V136a0.62,0.62,0,0,0,.45-0.14h0.16v-0.62h0.59v-0.61H167v-1.21h0.61v-0.6h0.63v-0.61a0.78,0.78,0,0,1,.15-0.13h0.43a0.88,0.88,0,0,1,.15-0.48,2.87,2.87,0,0,1,1.2-.14,14,14,0,0,1,.16-2.28h0.45v-0.76h0.63a0.75,0.75,0,0,1,.15-0.13v-0.47a0.74,0.74,0,0,0,.44-0.14,2.29,2.29,0,0,0,.16-1.22,1,1,0,0,1-.16-0.61c1.18-.08,1.24-0.56,2.59-0.6v-0.59c0.4-.09.79-0.14,1.2-0.2a0.74,0.74,0,0,1,.14-0.44c0.21-.13.77,0,1.07-0.13s-0.2-.48.75-0.62c-0.05-.6-0.1-1.21-0.15-1.8h-0.45v-0.62c-0.42-.06-0.82-0.11-1.22-0.13a0.79,0.79,0,0,0-.14-0.47,2.3,2.3,0,0,0-1.2-.17v-0.45l-2.43-.13v-0.6h-2v-0.62h-1.35v-0.59h-1.2V117.1H167v-0.6h-0.62c-0.16-.37-0.25-0.22-0.44-0.61s0.12-1.39-.14-2c-0.16,0-.3-0.09-0.45-0.13-0.09-.62-0.19-1.22-0.3-1.82h-0.44v-0.62h-0.76v-0.61h-0.62v-0.61H162v-0.61l-2.43-.13v-0.46l-3.76-.15a1,1,0,0,0-.16-0.45c-0.59-.38-2.29-0.18-3.18-0.16A0.75,0.75,0,0,0,152,108v-0.44h-0.77v-1.18h-0.61c0-1.62-.72-1.49-0.74-3.23h-0.46c-0.06-.64-0.1-1.29-0.15-1.94h-0.6V99.37H148.1V97.42h-0.62V95.59h-0.59c0-.4-0.1-0.81-0.14-1.2h-0.46c0-.47-0.1-0.9-0.14-1.36h-0.46c0-.4-0.11-0.82-0.17-1.24h-0.58V91h-0.47V90.61h0.47V90c0.84,0,1.71-.11,2.55-0.16V89.23h1.23v-0.6h0.92V88.17h0.29a0.88,0.88,0,0,1,.59-0.14l0.15-1.22h0.61V86.06h0.6V85.45l1.66,0.16c0.06,0.16.11,0.3,0.17,0.45H157c3,0.66,6.74,0,10,0V85.6h0.61v-2h0.63a0.52,0.52,0,0,1,.15-0.14V83c0.33-.08.69-0.11,1-0.18,0.27-.87,1.6-0.67,2.73-0.6V81.19h0.45c0-.64.11-1.29,0.14-2a0.79,0.79,0,0,0,.47-0.16c0.41-.66.16-2.65,0.14-3.62a0.87,0.87,0,0,1-.14-0.6c-1.19-.1-1.21-0.57-2.6-0.6v0.44l-4.24.16v0.6H167v0.47a14.75,14.75,0,0,1-2.4,0V75.45h-1.38v0.47L164.43,76V76.5c-0.69.43-.55,0.76-1.81,0.76V76.65c-0.35,0-.72-0.09-1.05-0.14a16.16,16.16,0,0,0-.34-1.66l-0.43-.16c-0.69-1.52,0-5.68,0-7.39a8.82,8.82,0,0,1,2.41,0v0.59c0.45,0,.92-0.13,1.38-0.17V67.29a33.63,33.63,0,0,1,6.18,0v0.42H172c0.14-.83.58-0.9,0.75-1.64l1.35-.17V65.44c0.56,0,1.12-.08,1.68-0.14v0.59h0.75v0.62h0.61v0.6a0.62,0.62,0,0,1,.45.17h0.15v0.42h0.6V65.3H179V64.7Z" transform="translate(0 -0.89)"/><rect class="cls-1" x="194.83" y="67.6" width="0.46" height="0.6"/><path class="cls-1" d="M240,70.29h7V70.9c1.12,0,2.48.43,2.56,1.37,0.38,0.06.73,0.09,1.07,0.15a0.69,0.69,0,0,0,.15.45V73h0.46c0.11,0.57.2,0.44,0.3,1.07a0.67,0.67,0,0,1,.45.16,1.83,1.83,0,0,1,.15,1.05,0.66,0.66,0,0,1,.47.15,2.43,2.43,0,0,1,.14,1.2h0.47a37.08,37.08,0,0,1,0,5h-0.47c0,0.84-.1,1.71-0.14,2.56h-0.47v1.22h-0.61a2.2,2.2,0,0,0-.15.74h-0.61v0.62h-0.6v0.61h-0.74V88h-1.07v0.62H247v0.59c-0.64.07-1.31,0.12-2,.16v0.45c-1.82,0-3.79,0-5.6,0V89.39c-0.61,0-1.22-.09-1.82-0.16V88.63h-1.2V88h-0.75v-0.6h-0.61V86.81h-0.6V86.19a0.7,0.7,0,0,1-.14-0.13h-0.45c-0.06-.4-0.12-0.82-0.17-1.24h-0.45c-0.05-.64-0.11-1.28-0.16-2h-0.44a27.48,27.48,0,0,1,0-4.83h0.44c0-.64.11-1.32,0.16-2h0.45c0-.4.11-0.81,0.17-1.2a0.77,0.77,0,0,0,.45-0.16h0.14V74.09h0.6V73.48h0.61V72.87h0.6v-0.6h0.6A1.12,1.12,0,0,1,237,72.1V71.65l1.21-.15V71c0.61,0,1.22-.08,1.81-0.15V70.29Z" transform="translate(0 -0.89)"/><path class="cls-1" d="M277.86,88h4.37a1.35,1.35,0,0,1,.15.14v0.46h1.2v0.6h1.22a75.35,75.35,0,0,1-.14,8h-0.45v1.52h-0.62V100H283c0,0.39-.09.81-0.12,1.21a0.78,0.78,0,0,0-.48.13h-0.15v0.47a0.71,0.71,0,0,0-.45.16,1.05,1.05,0,0,0-.16.58H281v0.59h-1.22v0.64h-0.74v0.58c-1.54,0-1,.37-1.82.78h-2c0,0.13-.11.3-0.17,0.45-0.84.38-3.49,0-4.82,0v-0.45h-0.62v-0.62h-0.59v-0.74h-0.61c0-1.2-1.2-2.94-.59-4.25,0.13-.05.3-0.1,0.46-0.16,0.09-.8.17-1.6,0.3-2.4h0.45V95.59h0.59c0.06-.4.12-0.81,0.17-1.2h0.45V93.78a1.67,1.67,0,0,1,.14-0.16h0.44V93h0.62V92.42h0.6V91.79c0.79-.42.84-1.18,2-1.34V89.84h0.61a0.67,0.67,0,0,1,.14-0.45,2.24,2.24,0,0,1,1.21-.16v-0.6h1.82V88Z" transform="translate(0 -0.89)"/><path class="cls-1" d="M199.2,91.79V96.2h1.23V95H201V94.39h-0.61c-0.07-.85-0.12-1.71-0.17-2.6H199.2Z" transform="translate(0 -0.89)"/><path class="cls-1" d="M257.75,101.8v0.76h0.58v0.62H259c0,0.4.09,0.8,0.16,1.19h0.43c0.11,1.36.56,3.63,0.17,5.15-0.26,1-.74,1.12-0.77,2.43h-0.62v1.35h-0.58v1.08h-0.63v0.75h0.63v0.6h0.58v0.62h-1.21V117c-0.43.06-.91,0.09-1.35,0.13v0.63h-1.21v0.59h-1.22v0.62h-0.75v0.6l-1.06.13v0.45h-0.76v0.64c-0.39,0-.79.08-1.22,0.13a0.64,0.64,0,0,1-.13.45,2.78,2.78,0,0,1-1.37.16V122a12.28,12.28,0,0,1-2.72,0v-0.45c-0.46,0-.91-0.09-1.37-0.16a0.59,0.59,0,0,0-.15-0.45,0.84,0.84,0,0,0-.6-0.13v-1.09h-0.59v-0.73H242v-1.21h-0.6c-0.07-.52-0.11-1-0.16-1.53h-0.46c0-.57-0.08-1.12-0.13-1.65H240v-2.13H239.6V110.9H240c0-1.93.57-2.39,0.76-3.78h0.46v-0.74h0.61a1.24,1.24,0,0,1,.15-0.18v-0.6h0.61c0-.36.1-0.7,0.13-1.07a0.59,0.59,0,0,0,.46-0.16h0.16v-0.45l1-.13v-0.61h0.76v-0.62c0.4,0,.81-0.1,1.22-0.12V102c0.42-.05.81-0.11,1.22-0.18v-0.46l1.81-.13c0.35-1.08,4.28-.66,5.74-0.61,0.18,0.52,1.94,1.17,2.58,1.2" transform="translate(0 -0.89)"/><path class="cls-1" d="M27.76,234.41H21.69l-12.12-35,0.78-1.17H20.68V174.19H5.8v60.22H0V169H21.84a4.44,4.44,0,0,1,4.64,4.64v24.83c0,3.14-2.11,4.69-6.35,4.69-0.41,0-1,0-1.83,0s-1.4-.06-1.77-0.06q5.67,15.62,11.23,31.31" transform="translate(0 -0.89)"/><path class="cls-1" d="M58.45,229.68c0,3.17-1.56,4.74-4.67,4.74H40.45c-3.12,0-4.67-1.57-4.67-4.74V198.51c0-3.17,1.55-4.74,4.67-4.74H53.77c3.12,0,4.67,1.57,4.67,4.74v14.6l-1.86,2H41.15v14.7H53.07v-7.43h5.38v7.34Zm-5.38-31.27H41.15v12.26H53.07V198.41Z" transform="translate(0 -0.89)"/><path class="cls-1" d="M90.56,234.41H85.1v-1.13c-2.21.32-4.41,0.6-6.59,0.88a55.59,55.59,0,0,1-6.55.51c-3,0-4.55-1.51-4.55-4.52V215.34c0-3.12,1.59-4.68,4.72-4.68h13V198.41H73.26v6.95H67.88v-6.84c0-3.17,1.55-4.74,4.66-4.74H85.88c3.12,0,4.67,1.57,4.67,4.74v35.9Zm-5.39-5.06V215H72.79v14.62Z" transform="translate(0 -0.89)"/><path class="cls-1" d="M122.17,229.69c0,3.16-1.58,4.72-4.68,4.72H104.31c-3.12,0-4.67-1.57-4.67-4.72V198.48q0-4.7,4.67-4.7h13.17c3.11,0,4.68,1.57,4.68,4.7v8.13h-5.48v-7.94h-11.5v30.86h11.5v-9.06h5.48v9.22Z" transform="translate(0 -0.89)"/><path class="cls-1" d="M154.47,234.41h-5.55V198.75l-12.23.34v35.32h-5.53V169h5.53v25.86c2.21-.27,4.4-0.56,6.61-0.84a54,54,0,0,1,6.53-.55c3.09,0,4.63,1.53,4.63,4.55v36.34Z" transform="translate(0 -0.89)"/><path class="cls-1" d="M203.08,234.41h-5.47v-1.13c-2.2.32-4.38,0.6-6.59,0.88a55.33,55.33,0,0,1-6.53.51c-3,0-4.55-1.51-4.55-4.52V215.34c0-3.12,1.56-4.68,4.71-4.68h13V198.41H185.76v6.95h-5.38v-6.84c0-3.17,1.55-4.74,4.67-4.74h13.35c3.11,0,4.67,1.57,4.67,4.74v35.9Zm-5.39-5.06V215H185.32v14.62Z" transform="translate(0 -0.89)"/><path class="cls-1" d="M244.19,166.8V182a15.35,15.35,0,0,1,4.68-3,14.42,14.42,0,0,1,5.41-1,12.46,12.46,0,0,1,7.53,2.24,9.08,9.08,0,0,1,3.79,5.21,56.31,56.31,0,0,1,.69,10.74v38.22H249.43v-39a24.35,24.35,0,0,0-.48-6.22,2.28,2.28,0,0,0-4.22,0,18.14,18.14,0,0,0-.54,5.61v39.56H227.33V166.8h16.85Z" transform="translate(0 -0.89)"/><path class="cls-1" d="M287.11,200.47H271.32v-3.72q0-6.44,1.47-9.93c1-2.33,3-4.36,6-6.15s6.83-2.67,11.58-2.67c5.71,0,10,1,12.9,3a11.7,11.7,0,0,1,5.2,7.42c0.59,3,.88,9,0.88,18.14v27.81H292.91v-4.92a10.3,10.3,0,0,1-9.8,5.93,14.28,14.28,0,0,1-8.12-2.49c-2.44-1.66-3.67-5.27-3.67-10.89v-4.54c0-4.16.65-7,1.95-8.48s4.55-3.26,9.72-5.25c5.54-2.18,8.49-3.65,8.88-4.38a11.62,11.62,0,0,0,.58-4.6q0-4.34-.64-5.66a2.22,2.22,0,0,0-2.15-1.32,2,2,0,0,0-2.1,1.11,21.53,21.53,0,0,0-.44,5.74v5.81Zm5.34,7.6c-2.7,2-4.25,3.62-4.69,5a20.21,20.21,0,0,0-.64,5.79,17,17,0,0,0,.57,5.55,2.21,2.21,0,0,0,2.23,1.26,2.06,2.06,0,0,0,2.05-1c0.31-.66.48-2.37,0.48-5.17V208.07Z" transform="translate(0 -0.89)"/><path class="cls-1" d="M332.22,179l-0.29,5.1a12.69,12.69,0,0,1,4.48-4.57,11.91,11.91,0,0,1,6.1-1.53,11.52,11.52,0,0,1,7.09,2.05,8.92,8.92,0,0,1,3.54,5.13,46.88,46.88,0,0,1,.79,10.4v38.83H337.11V196a37.63,37.63,0,0,0-.37-7,1.9,1.9,0,0,0-2.09-1.24,2.07,2.07,0,0,0-2.25,1.44q-0.48,1.45-.47,7.72v37.45H315.1V179h17.12Z" transform="translate(0 -0.89)"/><path class="cls-1" d="M398.05,166.8v67.61H381.21v-4a17.15,17.15,0,0,1-5.1,3.75,12.64,12.64,0,0,1-5.58,1.28,11.28,11.28,0,0,1-6.78-2.07,9.34,9.34,0,0,1-3.71-4.78,34.44,34.44,0,0,1-.8-8.87V193.77a35.27,35.27,0,0,1,.8-9.06,9.21,9.21,0,0,1,3.75-4.7,11.84,11.84,0,0,1,6.95-2,13.71,13.71,0,0,1,10.48,4.52V166.8h16.84Zm-16.84,26.13a10.71,10.71,0,0,0-.53-4.09,2.07,2.07,0,0,0-2.05-1,2,2,0,0,0-2,.94c-0.37.62-.53,2-0.53,4.19V220.1a12.77,12.77,0,0,0,.49,4.45,1.94,1.94,0,0,0,1.93,1.07,2.14,2.14,0,0,0,2.16-1.2q0.55-1.19.55-5.83V192.94Z" transform="translate(0 -0.89)"/></svg>