<?xml version="1.0" encoding="utf-8"?>
<!-- Generator: Adobe Illustrator 19.2.0, SVG Export Plug-In . SVG Version: 6.00 Build 0)  -->
<svg version="1.1" id="Layer_1" xmlns="http://www.w3.org/2000/svg" xmlns:xlink="http://www.w3.org/1999/xlink" x="0px" y="0px"
	 viewBox="0 0 398.1 234.4" style="enable-background:new 0 0 398.1 234.4;" xml:space="preserve">
<style type="text/css">
	.st0{fill:#FFFFFF;}
</style>
<g>
	<path class="st0" d="M192.3,0.9h5v0.6c0.4,0,0.8,0.1,1.2,0.2v0.4h0.7v0.6c1.1,0.1,0.8,0.6,1.8,0.8v0.6h0.7v0.6h0.5
		c0,1.8,0.3,1.6,0.6,2.6c0.3,1.2,0.5,8.7,0.2,10.1c-0.3,1.4-0.8,1.9-0.8,3.6h-0.5c-0.1,0.7-0.1,1.3-0.1,2H201v1.2h-0.6
		c-0.1,1.1-0.5,0.9-0.6,2h-0.6v0.6h-0.7v0.6h-0.6V28h-0.6v0.6h-0.6v0.6c-0.4,0.1-0.8,0.1-1.2,0.2c0,0.3,0,0.3-0.1,0.4
		c-0.3,0.2-0.7,0.2-1.2,0.2v0.6h-2v0.6h-2.4V30c-1.2,0-2.6,0-3.6-0.2c-0.1-0.3-0.1-0.7-0.2-1.1c-0.3-0.1-0.3,0-0.4-0.1
		c-1.3-2-0.8-6.1-0.8-8.9v-3.6c0.1-0.3,0.5-0.5,0.6-0.8V13h0.6c0-0.7,0-1.3,0.2-1.8h0.4v-0.9h0.6c0.1-1,0.3-0.6,0.6-1.1
		c0.3-0.6,0-2.2,0.2-2.7h0.5c0-0.4,0.1-0.8,0.1-1.2h0.6V3.5h1.8V2.1h0.6V1.5h0.8V0.9z"/>
	<path class="st0" d="M242.2,9.8h2.9v0.4c0.6,0.1,1.3,0.1,2,0.2v0.5c0.4,0,0.8,0.1,1.2,0.1c0.1,0.3,0,0.3,0.2,0.5
		c0.2,0.1,0.3,0.1,0.6,0.2v0.6h0.6v0.6h0.6v0.6h0.6v0.8h0.5c0.3,2,0.4,5.2,0,7.3h-0.5V23h-0.6v0.6h-0.6v1.2H249v0.6
		c-0.1,0.1-0.1,0.1-0.2,0.2h-0.4v0.6h-0.7v0.6H247v0.6h-0.6v0.7h-0.6v0.6h-0.6v0.6h-0.6V30H244c-0.1,0.6-0.2,0.5-0.3,1h-0.5v0.8
		h-0.6v0.6H242V33c0,0-0.1,0.1-0.2,0.2h-0.4c-0.1,0.3-0.1,0.3-0.2,0.4v0.2h-0.5v0.6H240V35h-0.6v0.6h-0.6v0.6h-0.6v0.6
		c-0.7,0.3-0.9,0.6-2,0.6v-1.8c-0.5,0.1-3.2,1-4.2,0.5c0-0.2-0.1-0.3-0.2-0.5h-1.2V35h-0.8v-0.6h-0.6v-0.6h-0.6v-1.2
		c-0.3-0.1-0.3,0-0.5-0.2c-0.2-0.2-0.1-0.7-0.1-1.2h1.2v-0.6h-0.6V30h-0.6v-0.8h-0.6v-2H227v-1.1h0.5c0-1.1,0-2.2,0.2-3h0.4v-1.4
		h0.6v-1.4h0.6c0.1-0.4,0.1-0.7,0.2-1.1h0.4v-0.7h0.6c0-0.7,0.2-0.7,0.3-1.2h0.5v-0.7h0.6v-0.6h0.6v-0.6h0.6v-0.6h0.6
		c0,0,0.1-0.1,0.2-0.2v-0.4c0.3-0.1,0.3-0.1,0.4-0.2h0.1v-0.5c0.4,0,0.8-0.1,1.2-0.1v-0.6h0.6v-0.6h0.9v-0.4h0.3
		c0.7-0.5,1.5-0.8,2.6-0.9v-0.5c0.7-0.1,1.4-0.1,2.1-0.2V9.8z"/>
	<path class="st0" d="M185.9,35c1.6,0,3.5-0.1,4.8,0.1v0.4h2c0.1,0.1,0.1,0.1,0.2,0.2v0.5h1.2v0.6h0.6c0,0.1,0.1,0.1,0.2,0.2v0.4
		c0.4,0.1,0.8,0.1,1.2,0.2v0.6h0.4c0.1,0.4,0.1,0.8,0.2,1.2h0.6v1.8h0.4v1.4h-0.4V45h-0.6v2H196v1.8c0,0-0.1,0.1-0.2,0.1h-0.5
		c0,0.6-0.1,1.1-0.1,1.7c-0.3,0.1-0.3,0-0.5,0.2c-0.1,0.2-0.1,0.4-0.2,0.7h-0.4c-0.1,0.3,0,0.3-0.2,0.5c-0.2,0.1-0.3,0.1-0.6,0.2
		v0.5c-1.9,0.1-3.9,1.5-6.4,0.8c-0.3-0.1-0.5-0.6-0.6-0.6c-0.8-0.1-1.7-0.1-2.6-0.2v-0.5c-0.6,0-1.2-0.1-1.8-0.2v-0.6h-0.8v-0.6
		h-1.1v-0.6h-0.8V48h-0.5v-2.3h0.5v-7h0.6v-0.6h0.6c0.1,0,0.1-0.1,0.2-0.1v-0.6h0.6V37h0.6c0,0,0.1-0.1,0.2-0.2v-0.4
		c1-0.2,1.1-0.6,1.6-0.8h2V35z"/>
	<path class="st0" d="M226.7,40.2v0.5h0.8v0.6h0.6V42h0.6v0.6h0.8v0.6h0.6v0.8h0.6V45h0.6v1.4h0.6v1.4h0.6v1.7c0,0,0.1,0.1,0.1,0.2
		h0.4c0.2,2.5,0.7,3.9,0.8,6.8c-0.1,0.1-0.1,0.1-0.2,0.2h-0.4c-0.1,0.4-0.1,0.8-0.2,1.2h-0.6v0.6h-0.6c0,0.4-0.1,0.8-0.2,1.2h-0.4
		v0.7h-0.6c0,0.4-0.1,0.7-0.2,1.1c-0.3,0.1-0.3,0-0.4,0.1c-0.1,0.2-0.1,0.3-0.2,0.6h-0.4c0,0.7,0,1.3-0.3,1.7v0.2
		c-0.5,0.1-1.1,0.1-1.6,0.2v0.5c-0.9,0.1-1.7,0.1-2.6,0.1v0.6h-5.6v-0.6h-2v-0.6c-0.6-0.1-1.2-0.1-1.8-0.2v-0.5
		c-0.4,0-0.8-0.1-1.2-0.2c-0.1-0.3,0-0.3-0.1-0.4c-0.2-0.1-0.3-0.1-0.6-0.2v-0.6H213v-0.6c-0.4,0-0.7-0.1-1.1-0.1
		c-0.1-0.6-0.2-0.4-0.3-1.1h-0.4v-0.6h-0.6c-0.1-0.3-0.1-0.5-0.2-0.9h-0.5c0-0.4-0.1-0.8-0.2-1.2h-0.4c-0.1-0.6-0.1-1.2-0.2-1.8
		h-0.6v-7.4h0.6c0-0.7,0.1-1.3,0.2-2h0.4c0.1-0.4,0.1-0.8,0.2-1.2h0.5v-0.6c0-0.1,0.1-0.1,0.2-0.2h0.5c0.1-0.3,0-0.3,0.2-0.5v-0.2
		h0.4c0.1-0.4,0.1-0.8,0.2-1.2h0.6V42h0.6v-0.6h0.6v-0.6c2-0.1,4.2-0.1,6.5-0.1v-0.5C222,39.9,224.8,39.9,226.7,40.2"/>
	<path class="st0" d="M272.1,42.6v0.6h1.4v0.6c0.4,0.1,0.8,0.1,1.2,0.2c0,0.3,0,0.3,0.1,0.5v0.2h0.5c0,0.3,0,0.3,0.2,0.4
		c0.2,0.1,0.2,0.1,0.6,0.1v0.6h0.4v0.6c0.1,0.1,0.1,0.1,0.2,0.1h0.4c0.1,0.3,0.1,0.3,0.2,0.5v0.2h0.5v0.5c0.5,0.1,0.5,0.1,0.6,0.6
		h0.8c0.3,1,0.2,2.7,0.2,3.9c-0.2,0.3,0,0.7-0.2,1.1c-0.1,0.2-0.5,0.3-0.6,0.8v1.9c-0.3,0.7-0.6,0.3-0.6,1.8h-0.6v1.8h-0.6v1.3h-0.6
		c-0.1,0.4-0.1,0.8-0.2,1.2h-0.4v0.6h-0.6c-0.1,1-0.6,1-0.8,2h-0.6v0.6h-0.6v0.6h-0.6v0.6h-0.6v0.6c-0.3,0.1-0.4,0.1-0.8,0.2v0.6
		h-0.6v0.6h-0.6v0.6h-0.6v0.6h-0.6v0.6h-0.6c0,0.1-0.1,0.1-0.1,0.1v0.5c-0.3,0.1-0.7,0.1-1.1,0.1c-0.1,0.3,0,0.3-0.1,0.5
		c-0.2,0.1-0.3,0.1-0.6,0.2v0.6h-1.2v0.6h-3.2v-0.6h-1.2v-0.6h-0.6c0-0.1-0.1-0.1-0.2-0.2V71c-0.4,0-0.8-0.1-1.2-0.1v-0.6h-0.6v-0.6
		h-0.6v-0.6h-0.6v-0.6h-0.6c-0.1-1.1-0.7-0.8-0.8-2h-0.6v-1.2H254v-3.8h0.6v-1.3h0.6v-1.2h0.6c0.1-0.4,0.1-0.8,0.2-1.2h0.5v-0.6
		c0-0.1,0.1-0.1,0.1-0.1h0.5c0-0.4,0.1-0.7,0.1-1.1h0.6c0-0.4,0.1-0.8,0.1-1.2h0.5v-0.7h0.6v-0.6c0-0.1,0.1-0.1,0.2-0.2h0.4
		c0.1-0.4,0.1-0.7,0.2-1.1h0.5v-0.8h0.6c0-0.4,0.1-0.8,0.1-1.2h0.6v-0.6h0.6v-0.7h0.6c0-0.3,0.1-0.6,0.2-0.9c0.4-0.2,0.6-0.5,1-0.7
		c0.2-0.2,0.4-0.2,0.8-0.2v-0.5h1.1V47h0.8c0-0.6,0.1-1.1,0.1-1.7h0.5c0.1-0.5,0.1-1,0.2-1.5h0.6v-0.6h1.4v-0.5
		C270.1,42.6,271.1,42.6,272.1,42.6"/>
	<path class="st0" d="M121,54.5h6.2c0.1,0.4,0.1,0.8,0.2,1.2h0.6v0.6h0.6v0.8h0.6v0.6h0.6v0.6h0.6c0.1,1,0.6,0.9,0.8,1.8
		c0.3,0,0.3,0,0.5,0.2c0.1,0.2,0.1,0.3,0.2,0.6h0.6v1.2h0.6v1.3h0.6v5.6H133v1.2h-0.6c0,0.1-0.1,0.1-0.2,0.2v0.4
		c-0.8,0.1-1.6,0.1-2.4,0.1v0.5c-0.3,0-0.3,0-0.5,0.1c-0.2,0.3-0.2,0.7-0.2,1.2H126v-0.6c-0.6-0.1-1.2-0.1-1.8-0.2v0.8
		c-0.6-0.1-1.2-0.1-1.8-0.2v-0.4h-0.8v-0.6c-0.4-0.1-0.8-0.1-1.2-0.1V71h-0.6v-0.6c-0.2-0.1-0.4-0.1-0.8-0.2v-0.6h-0.6v-0.6h-0.6
		v-0.8h-0.5c0-0.4-0.1-0.8-0.1-1.2h-0.6v-1.2H116c0-0.6,0.1-1.7-0.1-2.1c-0.1-0.1-0.4-0.1-0.5-0.3c-0.7-1.8,0.6-3.6,0.6-5.1h0.6
		v-0.6h0.6V57h0.6v-0.6h0.6v-0.6c1.1-0.1,1.1-0.6,2.6-0.6V54.5z"/>
	<path class="st0" d="M179,64.7c0.9,0,1.7,0.1,2.4,0.2v0.4h0.7v0.6c0.4,0.1,0.7,0.1,1.1,0.2c0.2,0.6,2,2.4,2.6,2.6v0.5h0.7v-0.6
		c0.6-0.1,1.3-0.1,2-0.2c0.1-0.2,0.1-0.3,0.1-0.5c0.2,0,0.3,0.1,0.5,0.2v0.3c1.2,0.1,2.4,0.2,3.6,0.3v0.5h2.1v1.2h1.2V71h0.6v0.5
		H196v0.6c-0.1,0-0.1,0.1-0.2,0.2h-0.5v0.6h5.7c0.1-0.5-0.1-0.2,0.3-0.5c0.2,0.7,0.4,0.4,0.6,1.1c0.1,0.2,0.1,0.3,0.2,0.6h0.6v0.6
		c0.6,0.1,1.2,0.1,1.8,0.2v0.5c0.9,0,1.7,0.1,2.6,0.2c0,0.3,0,0.3,0.1,0.5c0.3,0.2,0.7,0.2,1.2,0.1v0.6c0.3,0.1,0.7,0.1,1.1,0.2
		c0,0.6,0.1,1.1,0.1,1.7c-0.3,0.1-0.3,0-0.4,0.2c-0.1,0.2-0.1,0.1-0.2,0.4c0.3,0.1,0.9,0.2,1.2,0.3c0.1,0.8,0.1,1.4,0,2.3
		c-0.3,0.1-0.3,0-0.5,0.1c-0.1,0.2-0.1,0.3-0.2,0.6c-0.7,0-0.6,0.2-1.2,0.3v2.7h0.6c0,0.4,0.1,0.8,0.2,1.2h0.4
		c0.1-0.4,0.1-0.7,0.2-1h0.5c0,0.3,0,0.3,0.2,0.5v0.1h0.5c0.2,0.8,0.6,0.6,0.6,1.7c-0.4,0.2-0.4,0.1-0.4,0.7h-0.6
		c-0.1,0-0.1-0.1-0.2-0.2V88h-1.8v-0.6h-1.2v-0.6c-1.2,0-0.9-0.6-2-0.7v-0.6h-0.6v0.7h-0.6v0.5h1.2c0.1,1,0.4,0.8,0.5,1.8
		c-0.5,0.1-0.5,0.1-0.6,0.6h-0.4v0.7h-0.6c0,1.7,0,3.6-0.1,5h-1.2v0.8h1.3v0.6h0.6v0.6h1.2v0.6c0.9,0.1,1.1,0.1,2,0v-0.6h1.4v-0.4
		c0.4,0,0.7-0.1,1.1-0.2v0.6h1.2c0.1,0.1,0.1,0.1,0.2,0.2v0.5h0.6V98c0.4,0,0.8,0.1,1.2,0.1v0.6h0.6v0.6h0.8v0.6h0.6v0.8h0.6v0.5
		c1,0.1,2,0.1,3,0.1c0-0.1,0.1-0.1,0.1-0.1v-0.6h0.6v-1.8h-0.6v-0.6c1.1-0.1,2.1-0.1,3.2-0.1v-0.6h0.6c-0.1-0.3,0-0.3-0.1-0.5
		c-0.2-0.1-0.3-0.1-0.6-0.2v-0.6h-1.2v-0.6h0.6V95c0.9-0.1,0.8-0.4,1.4-0.6c1-0.1,2-0.1,3-0.2c0.1,0.2,0.1,0.4,0.2,0.8
		c-0.1,0.2-0.1,0.1-0.2,0.4h-0.4c0,0.5-0.1,0.9-0.2,1.4c-0.3,0.1-0.3,0.1-0.5,0.2c-0.1,0.2-0.1,0.2-0.2,0.6h-0.6v0.6h-0.6v0.6h-1.4
		c0,0.4,0.1,0.8,0.1,1.2h0.6v0.6c-0.6,0-1.3,0.1-2,0.2v0.6h-0.6v0.5h-0.6v0.7h-0.6c-0.1,0.4-0.1,0.7-0.1,1.1h-0.4v0.7h-0.6v0.6
		c-0.1,0-0.1,0.1-0.2,0.2h-0.5c0,0.3,0,0.3-0.1,0.4v0.2h-0.4c-0.1,0.3,0,0.3-0.2,0.4c-0.2,0.1-0.2,0.1-0.6,0.2
		c-0.2-0.1-0.3-0.1-0.6-0.2v-0.4h-0.6v-0.6h-0.6c-0.1-0.3-0.2-0.8-0.1-1.4h-0.6v0.6h-2.4v-0.6h-1.4v-0.6h-0.6v-0.6h-0.6V102
		c-0.4-0.1-0.7-0.1-1.1-0.2v-0.5c-0.6-0.1-1.2-0.1-1.8-0.1c-0.5-0.9-2.2-0.7-3.5-0.6c0.1-1.1,0-1.8,0-3h-0.6V97H201v2.4h-0.6v1.2
		H198c0,0-0.1,0.1-0.1,0.2v0.5c-0.9,0.1-1.6,0.1-2.4,0V100h0.5v-0.6h-1.7v0.6h0.4v3.2h-0.4c-0.1,0.4-0.1,0.8-0.2,1.2h-0.6v1.2h-0.6
		c-0.1,0.5-0.1,0.9-0.2,1.3h-0.4c-0.1,0.4-0.1,0.7-0.2,1.1h-0.5c0,0.5-0.1,0.9-0.1,1.4H191c0,0.8-0.1,1.7-0.1,2.6h-0.5
		c0,0.8-0.1,1.6-0.1,2.4h-0.6v2h0.6c0.1,1,0.6,0.9,0.7,2h0.6v0.6h0.6v0.6h0.6v0.6h0.6v0.6h0.6v0.6h0.6c0,0.1,0.1,0.1,0.2,0.2v0.4
		c0.4,0.1,0.7,0.1,1.1,0.1v0.6h0.8v0.6h1.2v-0.6h0.6v-0.6h4.5v0.6h1.2v6.8c-0.1,0.1-0.1,0.1-0.1,0.2h-0.5c0,1.1,0,2.2-0.2,3H203
		c0,0.8-0.1,1.6-0.1,2.4h-0.5v0.3c-0.3,0.5-0.2,1.7-0.2,2.4h-0.5c-0.1,1.1-0.1,2.1-0.1,3.2H201v0.6h-0.6v0.6h0.6v0.6h0.6
		c0,0.4,0.1,0.8,0.1,1.2h0.5v0.6c0,0,0.1,0.1,0.2,0.1h0.5c0,0.4,0.1,0.8,0.1,1.3h0.6v1.3h0.5v1.2h-0.5v0.6h2.4
		c0.1,0,0.1,0.1,0.2,0.2v0.4c0.6,0,1.1,0.1,1.7,0.1v0.5h2.6v-0.6h0.8v-0.6h0.6v-0.6h0.6V148h0.6v-0.6c0.1-0.1,0.1-0.1,0.1-0.2h0.4
		v-0.6h0.8v-0.5c0.4,0,0.8-0.1,1.2-0.1v-3.8h0.6v-2h0.6v-1.8h0.6v-1.8h0.6c0.1-0.8,0.1-1.7,0.2-2.6h0.6v-2h0.4
		c0.2-0.7,0.5-0.7,1.4-0.6v-0.6h0.8v-0.5c0.4-0.1,0.7-0.1,1.1-0.2c0-0.4,0.1-0.8,0.1-1.2h0.5c0-0.7,0.1-1.3,0.1-2h0.6v-0.6h0.6v0.6
		h1.4v-0.6h0.4c0.1-0.4,0.1-0.8,0.2-1.2c0.3-0.1,0.3,0,0.5-0.2h0.2v-1.2h0.6v-1.2h0.6c0.1-0.6,0.1-1.2,0.1-1.8
		c-0.2-0.1-0.3-0.1-0.7-0.1v-0.6h-0.6v-0.5c-0.7,0-0.6-0.2-1.2-0.3v-0.4h-0.8v-0.6c-0.3-0.1-0.7-0.1-1-0.2v-0.4h-0.8v-0.6h-0.6v-0.6
		c-0.2-0.1-0.4-0.1-0.8-0.1v-0.6h-0.6v-1.2h-0.6v-1.4h-0.6c0.1-0.7,0.1-1,0-1.8h0.6v-0.6h0.8v-0.6h1.8v0.6h0.6v1.2h0.6v0.6h0.6
		c0.1-0.3,0-0.3,0.2-0.5c0.2-0.2,0.7-0.1,1.2-0.1c0.2,0.1,0.1,0,0.3,0.1c0.1,0.2,0.1,0.3,0.2,0.5c0.1,0.2,0.1,0.3,0.2,0.6h0.6v0.7
		h0.6v0.6h0.6v0.6h0.6c0.1,0.4,0.1,0.8,0.1,1.2h0.6c0.1,1,0.6,0.9,0.6,2.1h0.5c0.1,0.6,0.1,0.9,0,1.5h-0.5v9.1h0.5v0.6h-0.5v0.6h-2
		v1.2c-0.8-0.1-1-0.1-1.8,0c0,1-0.1,2-0.2,3h-0.5c0,2.1-0.6,2.3-0.7,3.9c-0.3,0.1-0.3,0.1-0.5,0.2c-0.2,0.2-0.2,0.6-0.2,1.1h-0.6
		c-0.1,0.4-0.1,0.8-0.2,1.2h-0.4v0.8h-0.6v1.2h-0.6v0.7h-0.6c-0.1,1.1-0.6,0.8-0.8,1.8h-0.6v0.6h-0.6v0.6h-0.6
		c-0.1,0.3-0.1,0.7-0.1,1.1c-0.5,0.2-0.6,0.6-1.1,0.8c-0.2,0.1-0.3,0.1-0.6,0.1v0.6c-0.8,0.4-0.8,1.2-1.9,1.4v0.6h-0.6v0.6h-0.6v0.6
		h-0.8v0.6H213v0.6h-0.6v0.6c-0.4,0-0.8,0.1-1.2,0.1v0.6h-0.6v0.6h-0.8v0.6h-0.6v0.6H208v0.6h-0.6v0.6h-0.6c0,0.1-0.1,0.1-0.1,0.2
		v0.5H206c-0.1,0.3-0.1,0.4-0.4,0.6c-0.2,0.1-0.4,0.1-0.8,0.2v0.6h-0.6v0.6h-0.8v0.5c-0.5,0-0.9,0.1-1.2,0.3v0.5h-0.6v0.6H201
		c-0.1,0.1-0.1,0.1-0.2,0.2v0.5c-0.3,0.1-0.7,0.1-1.1,0.1v0.6h-0.7v0.6c-0.8,0-1.5-0.1-2.3-0.1v-0.4h-1.5v-0.6h-0.6v0.6h-1.2v0.6h-5
		c0,0.6-0.1,1.2-0.1,1.8c-1.9,0.1-2.8,0.6-4.8,0.6v-0.5h-1.4v-0.6c-0.4-0.1-0.8-0.1-1.2-0.1c-0.1-0.3,0-0.3-0.2-0.5
		c-0.2-0.1-0.3-0.1-0.6-0.1v-0.6h-0.6v-0.6H179v-0.6h-0.6v-0.6h-0.6v-0.8h-0.6v-0.6c-0.9-0.5-1.3-1.7-2.4-2c-0.1-0.3,0-0.3-0.1-0.5
		v-0.1h-0.5c-0.1-0.3,0-0.3-0.1-0.5c-0.2-0.1-0.3-0.1-0.6-0.2v-0.5c-0.4,0-0.8-0.1-1.2-0.2v-0.6h-3.3v0.6c-0.3,0.1-0.3,0-0.4,0.2
		h-0.2v0.5c-1,0.1-0.9,0.6-2,0.7v0.5c-0.7,0.1-1.3,0.1-2,0.2v0.5c-1.8,0.2-4.1,0-5.9,0v-0.5h-2.1c0,0.3-0.1,0.7-0.2,1
		c-0.3,0-0.7,0.1-1.1,0.2V160h-0.6v-0.6c-0.4-0.1-0.8-0.1-1.2-0.2v-0.5c-0.7,0-1.3-0.1-2-0.1V158h-0.6c0-0.3,0-0.3-0.2-0.5
		c-0.2-0.1-0.2-0.1-0.6-0.2v-0.6h0.7v-0.6h-0.6V155h-1.2c0,0-0.1-0.1-0.1-0.2v-0.4h-0.6v-0.8h-0.6V150h-0.6
		c-0.3-0.5-0.7-0.6-0.7-1.3h-0.6V148h-0.6v-0.6h-0.6v-0.8h-0.6v-0.5c-0.4,0-0.9-0.1-1.4-0.1v-0.6h-1.2v-0.6h-0.6v-2.6h-0.6v-0.6
		h-0.6V141c-0.6-0.3-1.3-1-1.4-1.8h-0.6c-0.2-0.4-0.5-0.8-1-0.9c-0.1-0.3,0-0.3-0.2-0.4v-0.2h-0.4c-0.1-0.6-0.2-0.5-0.3-1.1h-0.6
		v-0.7h-0.5v-0.6h0.5v-0.6h0.8c0-0.9-0.1-1.7-0.2-2.4h-0.5c-0.1-0.6-0.1-1.3-0.2-2H133v-0.6h-0.6v-0.6h-0.5v-0.6h0.5v-2h-0.5
		c0-0.5,0.1-3.3-0.2-3.8c-0.2-0.1-0.3-0.1-0.5-0.2c-0.4-0.5-0.3-1.6-0.3-2.4h-0.4c0-1-0.1-2-0.2-3H130c-0.1-1.1-0.1-2.1,0-3.2h0.4
		c0.1-0.8,0.1-1.7,0.2-2.6h0.4v-0.6h-1.2c-0.1-0.8-0.4-0.7-0.6-1.2c-0.4-1,0.1-2.8,0.2-3.6h0.5c0-0.9,0.1-1.9,0.2-2.6h0.4
		c0.1-0.7,0.1-1.3,0.2-2h0.4c0.1-0.6,0.1-1.2,0.2-1.8c0.3-0.1,0.3-0.1,0.5-0.2h0.2v-0.7h0.6v-1.1h0.6v-0.8h0.6v-0.6h0.6v-0.6h0.6V95
		h0.8v0.6h0.6v2h0.6v1.2h0.6v0.6c0.1,0.1,0.1,0.1,0.2,0.2h0.5c0,0.3,0.1,0.7,0.1,1.1h0.6v0.6h0.6v0.6h0.6v0.7h0.6v0.6
		c0.4,0.1,0.7,0.1,1.1,0.2v0.5h0.8v0.6h0.8v0.6h0.6v0.6h0.6c0.3,0.6,0.7,0.5,0.8,1.3h0.6v0.6c0.4,0.1,0.7,0.1,1.1,0.2
		c0,0.3,0.1,0.7,0.1,1.1h0.6v0.7h0.6v1.2h0.6v2.6h-0.6c0,0.4-0.1,0.7-0.1,1.1c-0.4,0-0.7,0.1-1.1,0.2v1.2h-0.6
		c0,0.4-0.1,0.8-0.1,1.2h-0.5c0,0.6-0.1,1.2-0.2,1.8h-0.5c0,1.4,0,2,0,3.3h0.5c0.1,0.6,0.1,1.2,0.2,1.8h0.5c0,0.5,0.1,0.9,0.1,1.4
		h0.6v0.6h0.6v0.6h0.6v0.6h0.6v1.3h-0.6v1.2h-0.6v1.2h-0.6c-0.1,1.2-1,3-1.2,4.4h0.5v-0.6h1.3v6.4h0.6v3c0.3,0.1,0.3,0,0.5,0.2
		c0.3,0.4-0.1,1.3,0.2,1.8c0.1,0,0.3,0.1,0.4,0.1c0.5,0.8,0.3,2.5,0.3,3.6c0.3,0,0.7,0.1,1.1,0.1v0.5h3.9V150c0.4,0,0.8-0.1,1.2-0.1
		v-0.6h0.6V148h0.6c0-0.7,0.1-1.3,0.2-1.9h0.5c0-2.3,0.7-2.7,0.8-5h0.6v-1.4h0.6v-0.6h2.4c0.1-0.3,0-0.3,0.2-0.5
		c0.3-0.2,0.8-0.2,1.2-0.2v-0.6h0.6v-0.6h0.6c0-0.1,0.1-0.1,0.2-0.2v-0.4c0.3,0,0.3,0,0.4-0.2h0.1V136c0.3,0,0.3,0,0.5-0.1h0.2v-0.6
		h0.6v-0.6h0.6v-1.2h0.6v-0.6h0.6v-0.6c0,0,0.1-0.1,0.2-0.1h0.4c0.1-0.3,0-0.3,0.2-0.5c0.3-0.2,0.8-0.1,1.2-0.1c0-0.8,0-1.7,0.2-2.3
		h0.4v-0.8h0.6c0-0.1,0.1-0.1,0.2-0.1v-0.5c0.3-0.1,0.3,0,0.4-0.1c0.2-0.3,0.2-0.8,0.2-1.2c-0.1-0.2-0.1-0.3-0.2-0.6
		c1.2-0.1,1.2-0.6,2.6-0.6v-0.6c0.4-0.1,0.8-0.1,1.2-0.2c0.1-0.3,0-0.3,0.1-0.4c0.2-0.1,0.8,0,1.1-0.1c0.4-0.3-0.2-0.5,0.8-0.6
		c-0.1-0.6-0.1-1.2-0.1-1.8h-0.4v-0.6c-0.4-0.1-0.8-0.1-1.2-0.1c0-0.3,0-0.3-0.1-0.5c-0.3-0.2-0.7-0.2-1.2-0.2v-0.5
		c-0.8,0-1.6-0.1-2.4-0.1v-0.6h-2v-0.6h-1.4v-0.6h-1.2v-0.6H167v-0.6h-0.6c-0.2-0.4-0.3-0.2-0.4-0.6c-0.3-0.4,0.1-1.4-0.1-2
		c-0.2,0-0.3-0.1-0.5-0.1c-0.1-0.6-0.2-1.2-0.3-1.8h-0.4v-0.6h-0.8v-0.6h-0.6v-0.6H162v-0.6c-0.8,0-1.6-0.1-2.4-0.1v-0.5
		c-1.2,0-2.5-0.1-3.8-0.2c-0.1-0.3,0-0.3-0.2-0.4c-0.6-0.4-2.3-0.2-3.2-0.2c-0.2-0.1-0.1-0.1-0.4-0.2v-0.4h-0.8v-1.2h-0.6
		c0-1.6-0.7-1.5-0.7-3.2h-0.5c-0.1-0.6-0.1-1.3-0.2-1.9h-0.6v-1.8h-0.6v-1.9h-0.6v-1.8h-0.6c0-0.4-0.1-0.8-0.1-1.2h-0.5
		c0-0.5-0.1-0.9-0.1-1.4h-0.5c0-0.4-0.1-0.8-0.2-1.2h-0.6V91h-0.5v-0.4h0.5V90c0.8,0,1.7-0.1,2.5-0.2v-0.6h1.2v-0.6h0.9v-0.5h0.3
		c0.2-0.1,0.2-0.1,0.6-0.1c0-0.4,0.1-0.8,0.2-1.2h0.6v-0.7h0.6v-0.6c0.6,0.1,1.1,0.1,1.7,0.2c0.1,0.2,0.1,0.3,0.2,0.5h3.3
		c3,0.7,6.7,0,10,0v-0.5h0.6v-2h0.6c0-0.1,0.1-0.1,0.2-0.1V83c0.3-0.1,0.7-0.1,1-0.2c0.3-0.9,1.6-0.7,2.7-0.6v-1.1h0.5
		c0-0.6,0.1-1.3,0.1-2c0.3-0.1,0.3,0,0.5-0.2c0.4-0.7,0.2-2.6,0.1-3.6c-0.1-0.2-0.1-0.3-0.1-0.6c-1.2-0.1-1.2-0.6-2.6-0.6v0.4
		c-1.4,0.1-2.8,0.1-4.2,0.2v0.6h0.6v0.5c-0.8,0-1.6,0.1-2.4,0v-0.5h-1.4v0.5c0.4,0,0.8,0.1,1.2,0.1v0.5c-0.7,0.4-0.5,0.8-1.8,0.8
		v-0.6c-0.4,0-0.7-0.1-1.1-0.1c0-0.1-0.2-1.5-0.3-1.7c-0.1-0.1-0.3-0.1-0.4-0.2c-0.7-1.5,0-5.7,0-7.4c0.8-0.1,1.6-0.1,2.4,0v0.6
		c0.5,0,0.9-0.1,1.4-0.2v-0.4c1.8-0.2,4.3-0.2,6.2,0v0.4h1.2c0.1-0.8,0.6-0.9,0.8-1.6c0.5-0.1,0.9-0.1,1.4-0.2v-0.5
		c0.6,0,1.1-0.1,1.7-0.1v0.6h0.8v0.6h0.6v0.6c0.3,0.1,0.3,0,0.4,0.2h0.1v0.4h0.6v-2.4h0.6V64.7z"/>
	<rect x="194.8" y="68.5" class="st0" width="0.5" height="0.6"/>
	<path class="st0" d="M240,70.3h7v0.6c1.1,0,2.5,0.4,2.6,1.4c0.4,0.1,0.7,0.1,1.1,0.1c0,0.3,0,0.3,0.1,0.5V73h0.5
		c0.1,0.6,0.2,0.4,0.3,1.1c0.3,0.1,0.3,0,0.5,0.2c0.2,0.2,0.2,0.6,0.2,1.1c0.3,0,0.3,0,0.5,0.2c0.2,0.2,0.2,0.7,0.1,1.2h0.5
		c0.1,1.5,0.1,3.5,0,5h-0.5c0,0.8-0.1,1.7-0.1,2.6h-0.5v1.2h-0.6c-0.1,0.2-0.1,0.4-0.2,0.7h-0.6v0.6h-0.6v0.6h-0.7V88h-1.1v0.6H247
		v0.6c-0.6,0.1-1.3,0.1-2,0.2v0.5c-1.8,0-3.8,0-5.6,0v-0.5c-0.6,0-1.2-0.1-1.8-0.2v-0.6h-1.2V88h-0.8v-0.6h-0.6v-0.6h-0.6v-0.6
		c0,0-0.1-0.1-0.1-0.1h-0.4c-0.1-0.4-0.1-0.8-0.2-1.2h-0.4c-0.1-0.6-0.1-1.3-0.2-2h-0.4c-0.2-1.4-0.1-3.4,0-4.8h0.4
		c0-0.6,0.1-1.3,0.2-2h0.4c0-0.4,0.1-0.8,0.2-1.2c0.3-0.1,0.3-0.1,0.4-0.2h0.1v-0.6h0.6v-0.6h0.6v-0.6h0.6v-0.6h0.6
		c0-0.1,0.1-0.1,0.1-0.2v-0.4c0.4-0.1,0.8-0.1,1.2-0.2V71c0.6,0,1.2-0.1,1.8-0.1V70.3z"/>
	<path class="st0" d="M277.9,88h4.4c0.1,0,0.1,0.1,0.2,0.1v0.5h1.2v0.6h1.2c0,2.6,0.1,5.7-0.1,8h-0.5v1.5h-0.6v1.2H283
		c0,0.4-0.1,0.8-0.1,1.2c-0.3,0.1-0.3,0-0.5,0.1h-0.2v0.5c-0.3,0.1-0.3,0-0.4,0.2c-0.1,0.2-0.1,0.3-0.2,0.6H281v0.6h-1.2v0.6h-0.7
		v0.6c-1.5,0-1,0.4-1.8,0.8h-2c0,0.1-0.1,0.3-0.2,0.4c-0.8,0.4-3.5,0-4.8,0v-0.4h-0.6v-0.6h-0.6v-0.7h-0.6c0-1.2-1.2-2.9-0.6-4.3
		c0.1-0.1,0.3-0.1,0.5-0.2c0.1-0.8,0.2-1.6,0.3-2.4h0.5v-1.4h0.6c0.1-0.4,0.1-0.8,0.2-1.2h0.5v-0.6c0-0.1,0.1-0.1,0.1-0.2h0.4V93
		h0.6v-0.6h0.6v-0.6c0.8-0.4,0.8-1.2,2-1.3v-0.6h0.6c0-0.3,0-0.3,0.1-0.5c0.2-0.2,0.7-0.2,1.2-0.2v-0.6h1.8V88z"/>
	<path class="st0" d="M199.2,91.8v4.4h1.2V95h0.6v-0.6h-0.6c-0.1-0.9-0.1-1.7-0.2-2.6H199.2z"/>
	<path class="st0" d="M257.7,101.8v0.8h0.6v0.6h0.6c0,0.4,0.1,0.8,0.2,1.2h0.4c0.1,1.4,0.6,3.6,0.2,5.2c-0.3,1-0.7,1.1-0.8,2.4h-0.6
		v1.3h-0.6v1.1h-0.6v0.7h0.6v0.6h0.6v0.6h-1.2v0.6c-0.4,0.1-0.9,0.1-1.3,0.1v0.6h-1.2v0.6h-1.2v0.6h-0.8v0.6c-0.3,0-0.7,0.1-1.1,0.1
		v0.5h-0.8v0.6c-0.4,0-0.8,0.1-1.2,0.1c0,0.3,0,0.3-0.1,0.5c-0.3,0.2-0.9,0.2-1.4,0.2v0.4c-0.9,0.1-1.9,0.1-2.7,0v-0.4
		c-0.5,0-0.9-0.1-1.4-0.2c0-0.3,0-0.3-0.2-0.5c-0.2-0.1-0.2-0.1-0.6-0.1v-1.1h-0.6v-0.7H242v-1.2h-0.6c-0.1-0.5-0.1-1-0.2-1.5h-0.5
		c0-0.6-0.1-1.1-0.1-1.7H240v-2.1h-0.4v-1.5h0.4c0-1.9,0.6-2.4,0.8-3.8h0.5v-0.7h0.6c0-0.1,0.1-0.1,0.2-0.2v-0.6h0.6
		c0-0.4,0.1-0.7,0.1-1.1c0.3,0,0.3,0,0.5-0.2h0.2v-0.4c0.4-0.1,0.7-0.1,1-0.1v-0.6h0.8v-0.6c0.4,0,0.8-0.1,1.2-0.1V102
		c0.4-0.1,0.8-0.1,1.2-0.2v-0.5c0.6-0.1,1.2-0.1,1.8-0.1c0.3-1.1,4.3-0.7,5.7-0.6C255.3,101.1,257.1,101.8,257.7,101.8"/>
	<path class="st0" d="M27.8,234.4h-6.1l-12.1-35l0.8-1.2h10.3v-24.1H5.8v60.2H0V169h21.8c1.4,0,2.5,0.4,3.3,1.3
		c0.9,0.9,1.3,2,1.3,3.3v24.8c0,3.1-2.1,4.7-6.3,4.7c-0.4,0-1,0-1.8,0c-0.8-0.1-1.4-0.1-1.8-0.1C20.3,213.5,24,223.9,27.8,234.4"/>
	<path class="st0" d="M58.4,229.7c0,3.2-1.6,4.7-4.7,4.7H40.4c-3.1,0-4.7-1.6-4.7-4.7v-31.2c0-3.2,1.6-4.7,4.7-4.7h13.3
		c3.1,0,4.7,1.6,4.7,4.7v14.6l-1.9,2H41.1v14.7h11.9v-7.4h5.4V229.7z M53.1,198.4H41.1v12.3h11.9V198.4z"/>
	<path class="st0" d="M90.6,234.4h-5.5v-1.1c-2.2,0.3-4.4,0.6-6.6,0.9c-2.7,0.3-4.9,0.5-6.5,0.5c-3,0-4.5-1.5-4.5-4.5v-14.8
		c0-3.1,1.6-4.7,4.7-4.7h13v-12.3H73.3v6.9h-5.4v-6.8c0-3.2,1.6-4.7,4.7-4.7h13.3c3.1,0,4.7,1.6,4.7,4.7V234.4z M85.2,229.4V215
		H72.8v14.6L85.2,229.4z"/>
	<path class="st0" d="M122.2,229.7c0,3.2-1.6,4.7-4.7,4.7h-13.2c-3.1,0-4.7-1.6-4.7-4.7v-31.2c0-3.1,1.6-4.7,4.7-4.7h13.2
		c3.1,0,4.7,1.6,4.7,4.7v8.1h-5.5v-7.9h-11.5v30.9h11.5v-9.1h5.5V229.7z"/>
	<path class="st0" d="M154.5,234.4h-5.5v-35.7l-12.2,0.3v35.3h-5.5V169h5.5v25.9c2.2-0.3,4.4-0.6,6.6-0.8c2.8-0.4,5-0.5,6.5-0.5
		c3.1,0,4.6,1.5,4.6,4.5V234.4z"/>
	<path class="st0" d="M203.1,234.4h-5.5v-1.1c-2.2,0.3-4.4,0.6-6.6,0.9c-2.7,0.3-4.9,0.5-6.5,0.5c-3,0-4.5-1.5-4.5-4.5v-14.8
		c0-3.1,1.6-4.7,4.7-4.7h13v-12.3h-11.9v6.9h-5.4v-6.8c0-3.2,1.5-4.7,4.7-4.7h13.3c3.1,0,4.7,1.6,4.7,4.7V234.4z M197.7,229.4V215
		h-12.4v14.6L197.7,229.4z"/>
	<path class="st0" d="M244.2,166.8V182c1.4-1.3,3-2.3,4.7-3c1.7-0.7,3.5-1,5.4-1c2.9,0,5.4,0.7,7.5,2.2c2.1,1.5,3.3,3.2,3.8,5.2
		c0.4,2,0.7,5.5,0.7,10.7v38.2h-16.9v-39c0-3.2-0.2-5.3-0.5-6.2c-0.3-0.9-1-1.4-2.1-1.4c-1,0-1.7,0.5-2.1,1.4
		c-0.4,0.9-0.5,2.8-0.5,5.6v39.6h-16.9v-67.6H244.2z"/>
	<path class="st0" d="M287.1,200.5h-15.8v-3.7c0-4.3,0.5-7.6,1.5-9.9c1-2.3,3-4.4,6-6.2c3-1.8,6.8-2.7,11.6-2.7c5.7,0,10,1,12.9,3
		c2.9,2,4.6,4.5,5.2,7.4c0.6,3,0.9,9,0.9,18.1v27.8h-16.4v-4.9c-1,2-2.4,3.5-4,4.4c-1.6,1-3.6,1.5-5.8,1.5c-2.9,0-5.7-0.8-8.1-2.5
		c-2.4-1.7-3.7-5.3-3.7-10.9v-4.5c0-4.2,0.7-7,1.9-8.5c1.3-1.5,4.6-3.3,9.7-5.3c5.5-2.2,8.5-3.7,8.9-4.4c0.4-0.8,0.6-2.3,0.6-4.6
		c0-2.9-0.2-4.8-0.6-5.7c-0.4-0.9-1.1-1.3-2.2-1.3c-1.1,0-1.8,0.4-2.1,1.1c-0.3,0.7-0.4,2.6-0.4,5.7V200.5z M292.5,208.1
		c-2.7,2-4.3,3.6-4.7,5c-0.4,1.3-0.6,3.3-0.6,5.8c0,2.9,0.2,4.7,0.6,5.5c0.4,0.8,1.1,1.3,2.2,1.3c1,0,1.7-0.3,2.1-1
		c0.3-0.7,0.5-2.4,0.5-5.2V208.1z"/>
	<path class="st0" d="M332.2,179l-0.3,5.1c1.2-2,2.7-3.6,4.5-4.6c1.8-1,3.8-1.5,6.1-1.5c2.9,0,5.3,0.7,7.1,2.1
		c1.8,1.3,3,3.1,3.5,5.1c0.5,2.1,0.8,5.5,0.8,10.4v38.8h-16.8V196c0-3.8-0.1-6.1-0.4-7c-0.3-0.8-1-1.2-2.1-1.2c-1.2,0-2,0.5-2.2,1.4
		c-0.3,1-0.5,3.5-0.5,7.7v37.5h-16.8V179H332.2z"/>
	<path class="st0" d="M398.1,166.8v67.6h-16.8v-4c-1.6,1.7-3.3,2.9-5.1,3.8c-1.8,0.9-3.6,1.3-5.6,1.3c-2.6,0-4.9-0.7-6.8-2.1
		c-1.9-1.4-3.1-3-3.7-4.8c-0.5-1.8-0.8-4.8-0.8-8.9v-25.9c0-4.2,0.3-7.3,0.8-9.1c0.6-1.8,1.8-3.3,3.7-4.7c1.9-1.4,4.3-2,6.9-2
		c2.1,0,4,0.4,5.7,1.1c1.7,0.8,3.3,1.9,4.7,3.4v-15.7H398.1z M381.2,192.9c0-2-0.2-3.4-0.5-4.1c-0.3-0.7-1-1-2.1-1
		c-1,0-1.7,0.3-2,0.9c-0.4,0.6-0.5,2-0.5,4.2v27.2c0,2.2,0.2,3.7,0.5,4.4c0.3,0.7,1,1.1,1.9,1.1c1.1,0,1.8-0.4,2.2-1.2
		c0.4-0.8,0.5-2.7,0.5-5.8V192.9z"/>
</g>
</svg>
