<svg id="Layer_1" data-name="Layer 1" xmlns="http://www.w3.org/2000/svg" viewBox="0 0 291.32 291.32"><defs><style>.cls-1{fill:#f4b459;}.cls-2{fill:#fff;}</style></defs><title>rss</title><path class="cls-1" d="M145.66,0A145.66,145.66,0,1,1,0,145.66,145.67,145.67,0,0,1,145.66,0Z" transform="translate(0 0)"/><path class="cls-2" d="M109.25,163.83a18.23,18.23,0,1,0,18.23,18.23A18.23,18.23,0,0,0,109.25,163.83Zm-5.38-45.46a12.8,12.8,0,1,0,0,25.6,43.58,43.58,0,0,1,43.53,43.53,12.8,12.8,0,0,0,25.61,0A69.21,69.21,0,0,0,103.87,118.37Zm0.25-45.53a13.09,13.09,0,1,0,0,26.18,88.29,88.29,0,0,1,88.19,88.18,13.09,13.09,0,0,0,26.18,0A114.51,114.51,0,0,0,104.12,72.84Z" transform="translate(0 0)"/></svg>