<svg id="Layer_1" data-name="Layer 1" xmlns="http://www.w3.org/2000/svg" viewBox="0 0 44 44"><defs><style>.cls-1{fill:#fff;}</style></defs><title>search__white</title><circle class="cls-1" cx="20" cy="20" r="7"/><path class="cls-1" d="M22,0A22,22,0,1,0,44,22,21.94,21.94,0,0,0,22,0ZM34.7,33.3l-1.4,1.4a1,1,0,0,1-1.4,0l-5.4-5.4a0.47,0.47,0,0,0-.6-0.1A10.73,10.73,0,0,1,20,30.9a11,11,0,1,1,11-11,10.73,10.73,0,0,1-1.7,5.9,0.45,0.45,0,0,0,.1.6l5.4,5.4A1.2,1.2,0,0,1,34.7,33.3Z" transform="translate(0 0)"/></svg>