<?xml version="1.0" encoding="utf-8"?>
<!-- Generator: Adobe Illustrator 19.2.0, SVG Export Plug-In . SVG Version: 6.00 Build 0)  -->
<svg version="1.1" id="Capa_1" xmlns="http://www.w3.org/2000/svg" xmlns:xlink="http://www.w3.org/1999/xlink" x="0px" y="0px"
	 viewBox="0 0 112.2 112.2" style="enable-background:new 0 0 112.2 112.2;" xml:space="preserve">
<style type="text/css">
	.st0{fill:#FF6A22;}
</style>
<path class="st0" d="M56.1,0C25.1,0,0,25.1,0,56.1s25.1,56.1,56.1,56.1c31,0,56.1-25.1,56.1-56.1S87.1,0,56.1,0z M16.7,68.8
	c0,0.2-0.2,0.3-0.3,0.3s-0.3-0.1-0.3-0.3l-0.6-4.4l0.6-4.5c0-0.2,0.2-0.3,0.3-0.3c0.2,0,0.3,0.1,0.3,0.3l0.7,4.5L16.7,68.8z
	 M19.7,71.5c0,0.2-0.2,0.3-0.3,0.3c-0.2,0-0.3-0.1-0.3-0.3l-0.8-7.1l0.8-7.3c0-0.2,0.2-0.3,0.3-0.3c0.2,0,0.3,0.1,0.3,0.3l0.9,7.3
	L19.7,71.5z M23,72.7c0,0.2-0.2,0.4-0.4,0.4c-0.2,0-0.4-0.2-0.4-0.4l-0.8-8.3l0.8-8.7c0-0.2,0.2-0.4,0.4-0.4c0.2,0,0.4,0.2,0.4,0.4
	l0.9,8.7L23,72.7z M26.3,73c0,0.3-0.2,0.5-0.5,0.5c-0.3,0-0.5-0.2-0.5-0.5l-0.7-8.6l0.7-8.9c0-0.3,0.2-0.5,0.5-0.5
	c0.2,0,0.5,0.2,0.5,0.5l0.8,8.9L26.3,73z M29.6,73.1c0,0.3-0.3,0.5-0.5,0.5c-0.3,0-0.5-0.2-0.5-0.5l-0.7-8.7l0.7-8.3
	c0-0.3,0.3-0.5,0.5-0.5c0.3,0,0.5,0.2,0.5,0.5l0.8,8.3L29.6,73.1z M32.9,73.1L32.9,73.1c0,0.3-0.3,0.6-0.6,0.6
	c-0.3,0-0.6-0.3-0.6-0.6l-0.6-8.7L31.7,51c0-0.3,0.3-0.6,0.6-0.6s0.6,0.3,0.6,0.6l0.7,13.4L32.9,73.1z M36.2,73.1L36.2,73.1
	c0,0.4-0.3,0.7-0.7,0.7c-0.4,0-0.7-0.3-0.7-0.7l-0.6-8.6l0.6-16.5c0-0.4,0.3-0.7,0.7-0.7c0.4,0,0.7,0.3,0.7,0.7l0.7,16.5L36.2,73.1z
	 M39.7,72.9L39.7,72.9c0,0.4-0.3,0.7-0.8,0.7s-0.7-0.3-0.8-0.7l-0.6-8.5c0,0,0.6-17.9,0.6-17.9c0-0.4,0.3-0.7,0.8-0.7
	s0.7,0.3,0.8,0.7l0.6,17.9L39.7,72.9z M43.1,72.9c0,0.5-0.4,0.8-0.8,0.8c-0.4,0-0.8-0.4-0.8-0.8L41,64.4l0.5-18.5
	c0-0.5,0.4-0.8,0.8-0.8c0.4,0,0.8,0.4,0.8,0.8l0.6,18.5L43.1,72.9z M46.6,72.8L46.6,72.8c0,0.5-0.4,0.9-0.9,0.9
	c-0.5,0-0.9-0.4-0.9-0.9l-0.5-8.4l0.5-18c0-0.5,0.4-0.9,0.9-0.9c0.5,0,0.9,0.4,0.9,0.9l0.5,18L46.6,72.8z M50,72.8L50,72.8
	c0,0.5-0.4,0.9-1,0.9c-0.5,0-1-0.4-1-0.9l-0.4-8.4l0.4-17.3c0-0.5,0.4-1,1-1c0.5,0,1,0.4,1,1l0.5,17.4L50,72.8z M53.6,71.9l0,0.8
	c0,0.3-0.1,0.5-0.3,0.7c-0.2,0.2-0.4,0.3-0.7,0.3c-0.3,0-0.6-0.1-0.8-0.4c-0.1-0.2-0.2-0.4-0.2-0.6c0,0,0,0,0,0c0,0-0.4-8.3-0.4-8.3
	L51.5,44l0-0.2c0-0.4,0.2-0.7,0.5-0.9c0.2-0.1,0.3-0.2,0.6-0.2c0.2,0,0.4,0.1,0.6,0.2c0.3,0.2,0.5,0.5,0.5,0.9L54,64.4L53.6,71.9z
	 M57,72.6L57,72.6c0,0.6-0.5,1.1-1.1,1.1c-0.6,0-1.1-0.5-1.1-1.1l-0.2-4l-0.2-4.1L54.8,42v-0.1c0-0.3,0.2-0.6,0.4-0.8
	c0.2-0.2,0.4-0.2,0.7-0.2c0.2,0,0.4,0.1,0.6,0.2c0.3,0.2,0.5,0.5,0.5,0.9l0.5,22.5L57,72.6z M86.7,73.7c0,0-27.7,0-27.7,0
	c-0.6-0.1-1.1-0.5-1.1-1.1V40.8c0-0.6,0.2-0.9,1-1.2c1.9-0.8,4.1-1.2,6.4-1.2c9.2,0,16.8,7.1,17.6,16.1c1.2-0.5,2.5-0.8,3.9-0.8
	c5.5,0,10,4.5,10,10C96.7,69.3,92.3,73.7,86.7,73.7z"/>
</svg>
