<svg id="Capa_1" data-name="Capa 1" xmlns="http://www.w3.org/2000/svg" viewBox="0 0 112.2 112.2"><defs><style>.cls-1{fill:#fff;}</style></defs><title>soundcloud_white</title><path class="cls-1" d="M56.1,0a56.1,56.1,0,1,0,56.1,56.1A56.1,56.1,0,0,0,56.1,0ZM16.71,68.83a0.33,0.33,0,0,1-.65,0l-0.59-4.44,0.59-4.51a0.34,0.34,0,0,1,.32-0.32,0.34,0.34,0,0,1,.33.32l0.71,4.52Zm3,2.7a0.34,0.34,0,0,1-.68,0l-0.8-7.14,0.8-7.3a0.34,0.34,0,0,1,.68,0l0.91,7.3ZM23,72.74a0.42,0.42,0,0,1-.41.4,0.41,0.41,0,0,1-.41-0.4L21.42,64.4l0.76-8.66a0.42,0.42,0,0,1,.41-0.4,0.42,0.42,0,0,1,.41.4l0.86,8.66ZM26.28,73a0.48,0.48,0,0,1-1,0L24.6,64.4l0.72-8.9a0.48,0.48,0,0,1,1,0l0.81,8.9Zm3.31,0.07a0.55,0.55,0,0,1-1.09,0l-0.68-8.68,0.68-8.25a0.55,0.55,0,0,1,1.09,0l0.77,8.26Zm3.34,0h0a0.62,0.62,0,0,1-1.23,0L31.07,64.4,31.7,51a0.62,0.62,0,0,1,1.23,0L33.65,64.4Zm3.32,0h0a0.69,0.69,0,0,1-1.37,0l-0.6-8.62,0.6-16.5a0.69,0.69,0,0,1,1.37,0l0.67,16.5Zm3.44-.13h0a0.75,0.75,0,0,1-1.51,0l-0.55-8.53,0.55-17.88a0.75,0.75,0,0,1,1.51,0l0.63,17.88Zm3.42-.06a0.82,0.82,0,0,1-1.65,0L41,64.4l0.52-18.48a0.82,0.82,0,0,1,1.65,0L43.68,64.4Zm3.44-.08h0a0.89,0.89,0,0,1-1.78,0l-0.47-8.4,0.47-18a0.89,0.89,0,0,1,1.79,0l0.53,18Zm3.47,0h0a1,1,0,0,1-1.93,0L47.67,64.4,48.1,47.06a1,1,0,0,1,1.93,0l0.48,17.35Zm3.54-.88,0,0.82a1.07,1.07,0,0,1-.31.73,1,1,0,0,1-.72.3,1,1,0,0,1-1-1,0.14,0.14,0,0,1,0,0s-0.4-8.29-.4-8.3L51.46,44v-0.2a1,1,0,0,1,.48-0.86,1,1,0,0,1,1.12,0,1,1,0,0,1,.46.85L54,64.41ZM57,72.59h0a1.1,1.1,0,0,1-2.2,0l-0.23-4-0.22-4.14L54.81,42V41.89A1.11,1.11,0,0,1,55.22,41a1.09,1.09,0,0,1,.69-0.25,1.11,1.11,0,0,1,.56.15,1.15,1.15,0,0,1,.54.94L57.5,64.41Zm29.73,1.11H59a1.18,1.18,0,0,1-1.08-1.15V40.82a1.14,1.14,0,0,1,1-1.17,17.85,17.85,0,0,1,6.4-1.2A17.65,17.65,0,0,1,82.88,54.52,10,10,0,1,1,86.74,73.69Z" transform="translate(0 0)"/></svg>