<svg id="Capa_1" data-name="Capa 1" xmlns="http://www.w3.org/2000/svg" viewBox="0 0 491.86 491.86"><defs><style>.cls-1{isolation:isolate;}.cls-2{fill:#fff;}</style></defs><title>web</title><path d="M245.93,0C110.11,0,0,110.11,0,245.93S110.11,491.86,245.93,491.86a244.81,244.81,0,0,0,145.7-47.81,8.6,8.6,0,0,1-5.85-2.85l-40.28-45L323.8,429.48,305.89,339,398,367.65l-39.65,17,40.28,45a8.57,8.57,0,0,1,2,7.38,245.43,245.43,0,0,0,91.21-191.15C491.86,110.11,381.75,0,245.93,0Z" transform="translate(0 0)"/><g class="cls-1"><path class="cls-2" d="M91.85,263.35l2.25,12.53L94.35,276l2.76-12.61,18.21-57.81h12.53l18.21,57.81L149,277h0.25l2.84-13.7,14.62-57.81h15.37l-26.23,90.39H143.3l-17.88-55.72-3.93-16.12h-0.25l-3.76,16.12L100,295.92H87.34L61.11,205.54H76.56Z" transform="translate(0 0)"/><path class="cls-2" d="M221.33,263.35l2.26,12.53,0.25,0.08,2.76-12.61,18.21-57.81h12.53l18.21,57.81,2.92,13.7h0.25l2.84-13.7,14.62-57.81h15.37l-26.23,90.39H272.78l-17.88-55.72L251,224.08h-0.25L247,240.21l-17.54,55.72H216.82l-26.23-90.39H206Z" transform="translate(0 0)"/><path class="cls-2" d="M350.81,263.35l2.26,12.53,0.25,0.08,2.76-12.61,18.21-57.81h12.53L405,263.35l2.92,13.7h0.25l2.84-13.7,14.62-57.81H441L414.8,295.92H402.27l-17.88-55.72-3.93-16.12h-0.25l-3.76,16.12-17.54,55.72H346.3l-26.23-90.39h15.45Z" transform="translate(0 0)"/></g></svg>