<svg id="Layer_1" data-name="Layer 1" xmlns="http://www.w3.org/2000/svg" viewBox="0 0 414.76 418.14"><defs><style>.cls-1{fill:#7ad06d;}</style></defs><title>whatsapp_color</title><path class="cls-1" d="M198.93,0.24C88.5,5.5,1.36,97.47,1.69,208a206.47,206.47,0,0,0,22.57,93.54l-22,106.87A8.07,8.07,0,0,0,12,417.91L116.73,393.1a206.4,206.4,0,0,0,89.11,21.63c112.87,1.72,207-87.9,210.5-200.72C420.11,93.06,320.3-5.54,198.93.24Zm125,322A162.48,162.48,0,0,1,136.8,352.82l-14.58-7.27L58,360.77l13.51-65.61-7.18-14.07A162.52,162.52,0,0,1,94.25,92.56,162.38,162.38,0,1,1,323.89,322.2Z" transform="translate(-1.69 0)"/><path class="cls-1" d="M309.71,252.35l-40.17-11.53a15,15,0,0,0-14.82,3.9l-9.82,10A14.63,14.63,0,0,1,229,258.09c-19-7.69-59-43.23-69.18-61A14.63,14.63,0,0,1,161,180.86l8.58-11.1a15,15,0,0,0,1.85-15.21l-16.9-38.22A15,15,0,0,0,131.1,111c-11.21,9.48-24.51,23.89-26.13,39.85-2.85,28.14,9.22,63.62,54.86,106.22,52.73,49.21,95,55.72,122.45,49.06,15.59-3.78,28.06-18.92,35.92-31.32A15,15,0,0,0,309.71,252.35Z" transform="translate(-1.69 0)"/></svg>